<mxfile host="app.diagrams.net" modified="2023-06-05T06:41:11.075Z" agent="Mozilla/5.0 (Windows NT 10.0; Win64; x64) AppleWebKit/537.36 (KHTML, like Gecko) Chrome/113.0.0.0 Safari/537.36 Edg/113.0.1774.57" etag="oKYx9mv03CSrLC8Qxzuf" version="21.3.5" type="github">
  <diagram id="C5RBs43oDa-KdzZeNtuy" name="Page-1">
    <mxGraphModel dx="2019" dy="1156" grid="1" gridSize="10" guides="1" tooltips="1" connect="1" arrows="1" fold="1" page="1" pageScale="1" pageWidth="827" pageHeight="1169" math="0" shadow="0">
      <root>
        <mxCell id="WIyWlLk6GJQsqaUBKTNV-0" />
        <mxCell id="WIyWlLk6GJQsqaUBKTNV-1" parent="WIyWlLk6GJQsqaUBKTNV-0" />
        <mxCell id="zkfFHV4jXpPFQw0GAbJ--0" value="Person" style="swimlane;fontStyle=2;align=center;verticalAlign=top;childLayout=stackLayout;horizontal=1;startSize=26;horizontalStack=0;resizeParent=1;resizeLast=0;collapsible=1;marginBottom=0;rounded=0;shadow=0;strokeWidth=1;" parent="WIyWlLk6GJQsqaUBKTNV-1" vertex="1">
          <mxGeometry x="240" y="220" width="160" height="138" as="geometry">
            <mxRectangle x="230" y="140" width="160" height="26" as="alternateBounds" />
          </mxGeometry>
        </mxCell>
        <mxCell id="zkfFHV4jXpPFQw0GAbJ--1" value="Name" style="text;align=left;verticalAlign=top;spacingLeft=4;spacingRight=4;overflow=hidden;rotatable=0;points=[[0,0.5],[1,0.5]];portConstraint=eastwest;" parent="zkfFHV4jXpPFQw0GAbJ--0" vertex="1">
          <mxGeometry y="26" width="160" height="26" as="geometry" />
        </mxCell>
        <mxCell id="zkfFHV4jXpPFQw0GAbJ--2" value="Phone Number" style="text;align=left;verticalAlign=top;spacingLeft=4;spacingRight=4;overflow=hidden;rotatable=0;points=[[0,0.5],[1,0.5]];portConstraint=eastwest;rounded=0;shadow=0;html=0;" parent="zkfFHV4jXpPFQw0GAbJ--0" vertex="1">
          <mxGeometry y="52" width="160" height="26" as="geometry" />
        </mxCell>
        <mxCell id="zkfFHV4jXpPFQw0GAbJ--3" value="Email Address" style="text;align=left;verticalAlign=top;spacingLeft=4;spacingRight=4;overflow=hidden;rotatable=0;points=[[0,0.5],[1,0.5]];portConstraint=eastwest;rounded=0;shadow=0;html=0;" parent="zkfFHV4jXpPFQw0GAbJ--0" vertex="1">
          <mxGeometry y="78" width="160" height="26" as="geometry" />
        </mxCell>
        <mxCell id="zkfFHV4jXpPFQw0GAbJ--4" value="" style="line;html=1;strokeWidth=1;align=left;verticalAlign=middle;spacingTop=-1;spacingLeft=3;spacingRight=3;rotatable=0;labelPosition=right;points=[];portConstraint=eastwest;" parent="zkfFHV4jXpPFQw0GAbJ--0" vertex="1">
          <mxGeometry y="104" width="160" height="8" as="geometry" />
        </mxCell>
        <mxCell id="zkfFHV4jXpPFQw0GAbJ--5" value="Purchase Parking Pass" style="text;align=left;verticalAlign=top;spacingLeft=4;spacingRight=4;overflow=hidden;rotatable=0;points=[[0,0.5],[1,0.5]];portConstraint=eastwest;" parent="zkfFHV4jXpPFQw0GAbJ--0" vertex="1">
          <mxGeometry y="112" width="160" height="26" as="geometry" />
        </mxCell>
        <mxCell id="zkfFHV4jXpPFQw0GAbJ--6" value="Student" style="swimlane;fontStyle=0;align=center;verticalAlign=top;childLayout=stackLayout;horizontal=1;startSize=26;horizontalStack=0;resizeParent=1;resizeLast=0;collapsible=1;marginBottom=0;rounded=0;shadow=0;strokeWidth=1;" parent="WIyWlLk6GJQsqaUBKTNV-1" vertex="1">
          <mxGeometry x="140" y="460" width="160" height="138" as="geometry">
            <mxRectangle x="130" y="380" width="160" height="26" as="alternateBounds" />
          </mxGeometry>
        </mxCell>
        <mxCell id="zkfFHV4jXpPFQw0GAbJ--7" value="Student Number" style="text;align=left;verticalAlign=top;spacingLeft=4;spacingRight=4;overflow=hidden;rotatable=0;points=[[0,0.5],[1,0.5]];portConstraint=eastwest;" parent="zkfFHV4jXpPFQw0GAbJ--6" vertex="1">
          <mxGeometry y="26" width="160" height="26" as="geometry" />
        </mxCell>
        <mxCell id="zkfFHV4jXpPFQw0GAbJ--8" value="Average Mark" style="text;align=left;verticalAlign=top;spacingLeft=4;spacingRight=4;overflow=hidden;rotatable=0;points=[[0,0.5],[1,0.5]];portConstraint=eastwest;rounded=0;shadow=0;html=0;" parent="zkfFHV4jXpPFQw0GAbJ--6" vertex="1">
          <mxGeometry y="52" width="160" height="26" as="geometry" />
        </mxCell>
        <mxCell id="zkfFHV4jXpPFQw0GAbJ--9" value="" style="line;html=1;strokeWidth=1;align=left;verticalAlign=middle;spacingTop=-1;spacingLeft=3;spacingRight=3;rotatable=0;labelPosition=right;points=[];portConstraint=eastwest;" parent="zkfFHV4jXpPFQw0GAbJ--6" vertex="1">
          <mxGeometry y="78" width="160" height="8" as="geometry" />
        </mxCell>
        <mxCell id="zkfFHV4jXpPFQw0GAbJ--10" value="Is Eligible To Enroll" style="text;align=left;verticalAlign=top;spacingLeft=4;spacingRight=4;overflow=hidden;rotatable=0;points=[[0,0.5],[1,0.5]];portConstraint=eastwest;fontStyle=4" parent="zkfFHV4jXpPFQw0GAbJ--6" vertex="1">
          <mxGeometry y="86" width="160" height="26" as="geometry" />
        </mxCell>
        <mxCell id="zkfFHV4jXpPFQw0GAbJ--11" value="Get Seminars Taken" style="text;align=left;verticalAlign=top;spacingLeft=4;spacingRight=4;overflow=hidden;rotatable=0;points=[[0,0.5],[1,0.5]];portConstraint=eastwest;" parent="zkfFHV4jXpPFQw0GAbJ--6" vertex="1">
          <mxGeometry y="112" width="160" height="26" as="geometry" />
        </mxCell>
        <mxCell id="zkfFHV4jXpPFQw0GAbJ--12" value="" style="endArrow=block;endSize=10;endFill=0;shadow=0;strokeWidth=1;rounded=0;edgeStyle=elbowEdgeStyle;elbow=vertical;" parent="WIyWlLk6GJQsqaUBKTNV-1" source="zkfFHV4jXpPFQw0GAbJ--6" target="zkfFHV4jXpPFQw0GAbJ--0" edge="1">
          <mxGeometry width="160" relative="1" as="geometry">
            <mxPoint x="220" y="303" as="sourcePoint" />
            <mxPoint x="220" y="303" as="targetPoint" />
          </mxGeometry>
        </mxCell>
        <mxCell id="zkfFHV4jXpPFQw0GAbJ--13" value="Professor" style="swimlane;fontStyle=0;align=center;verticalAlign=top;childLayout=stackLayout;horizontal=1;startSize=26;horizontalStack=0;resizeParent=1;resizeLast=0;collapsible=1;marginBottom=0;rounded=0;shadow=0;strokeWidth=1;" parent="WIyWlLk6GJQsqaUBKTNV-1" vertex="1">
          <mxGeometry x="350" y="460" width="160" height="70" as="geometry">
            <mxRectangle x="340" y="380" width="170" height="26" as="alternateBounds" />
          </mxGeometry>
        </mxCell>
        <mxCell id="zkfFHV4jXpPFQw0GAbJ--14" value="Salary" style="text;align=left;verticalAlign=top;spacingLeft=4;spacingRight=4;overflow=hidden;rotatable=0;points=[[0,0.5],[1,0.5]];portConstraint=eastwest;" parent="zkfFHV4jXpPFQw0GAbJ--13" vertex="1">
          <mxGeometry y="26" width="160" height="26" as="geometry" />
        </mxCell>
        <mxCell id="zkfFHV4jXpPFQw0GAbJ--15" value="" style="line;html=1;strokeWidth=1;align=left;verticalAlign=middle;spacingTop=-1;spacingLeft=3;spacingRight=3;rotatable=0;labelPosition=right;points=[];portConstraint=eastwest;" parent="zkfFHV4jXpPFQw0GAbJ--13" vertex="1">
          <mxGeometry y="52" width="160" height="8" as="geometry" />
        </mxCell>
        <mxCell id="zkfFHV4jXpPFQw0GAbJ--16" value="" style="endArrow=block;endSize=10;endFill=0;shadow=0;strokeWidth=1;rounded=0;edgeStyle=elbowEdgeStyle;elbow=vertical;" parent="WIyWlLk6GJQsqaUBKTNV-1" source="zkfFHV4jXpPFQw0GAbJ--13" target="zkfFHV4jXpPFQw0GAbJ--0" edge="1">
          <mxGeometry width="160" relative="1" as="geometry">
            <mxPoint x="230" y="473" as="sourcePoint" />
            <mxPoint x="330" y="371" as="targetPoint" />
          </mxGeometry>
        </mxCell>
        <mxCell id="zkfFHV4jXpPFQw0GAbJ--17" value="Address" style="swimlane;fontStyle=0;align=center;verticalAlign=top;childLayout=stackLayout;horizontal=1;startSize=26;horizontalStack=0;resizeParent=1;resizeLast=0;collapsible=1;marginBottom=0;rounded=0;shadow=0;strokeWidth=1;" parent="WIyWlLk6GJQsqaUBKTNV-1" vertex="1">
          <mxGeometry x="528" y="220" width="160" height="216" as="geometry">
            <mxRectangle x="550" y="140" width="160" height="26" as="alternateBounds" />
          </mxGeometry>
        </mxCell>
        <mxCell id="zkfFHV4jXpPFQw0GAbJ--18" value="Street" style="text;align=left;verticalAlign=top;spacingLeft=4;spacingRight=4;overflow=hidden;rotatable=0;points=[[0,0.5],[1,0.5]];portConstraint=eastwest;" parent="zkfFHV4jXpPFQw0GAbJ--17" vertex="1">
          <mxGeometry y="26" width="160" height="26" as="geometry" />
        </mxCell>
        <mxCell id="zkfFHV4jXpPFQw0GAbJ--19" value="City" style="text;align=left;verticalAlign=top;spacingLeft=4;spacingRight=4;overflow=hidden;rotatable=0;points=[[0,0.5],[1,0.5]];portConstraint=eastwest;rounded=0;shadow=0;html=0;" parent="zkfFHV4jXpPFQw0GAbJ--17" vertex="1">
          <mxGeometry y="52" width="160" height="26" as="geometry" />
        </mxCell>
        <mxCell id="zkfFHV4jXpPFQw0GAbJ--20" value="State" style="text;align=left;verticalAlign=top;spacingLeft=4;spacingRight=4;overflow=hidden;rotatable=0;points=[[0,0.5],[1,0.5]];portConstraint=eastwest;rounded=0;shadow=0;html=0;" parent="zkfFHV4jXpPFQw0GAbJ--17" vertex="1">
          <mxGeometry y="78" width="160" height="26" as="geometry" />
        </mxCell>
        <mxCell id="zkfFHV4jXpPFQw0GAbJ--21" value="Postal Code" style="text;align=left;verticalAlign=top;spacingLeft=4;spacingRight=4;overflow=hidden;rotatable=0;points=[[0,0.5],[1,0.5]];portConstraint=eastwest;rounded=0;shadow=0;html=0;" parent="zkfFHV4jXpPFQw0GAbJ--17" vertex="1">
          <mxGeometry y="104" width="160" height="26" as="geometry" />
        </mxCell>
        <mxCell id="zkfFHV4jXpPFQw0GAbJ--22" value="Country" style="text;align=left;verticalAlign=top;spacingLeft=4;spacingRight=4;overflow=hidden;rotatable=0;points=[[0,0.5],[1,0.5]];portConstraint=eastwest;rounded=0;shadow=0;html=0;" parent="zkfFHV4jXpPFQw0GAbJ--17" vertex="1">
          <mxGeometry y="130" width="160" height="26" as="geometry" />
        </mxCell>
        <mxCell id="zkfFHV4jXpPFQw0GAbJ--23" value="" style="line;html=1;strokeWidth=1;align=left;verticalAlign=middle;spacingTop=-1;spacingLeft=3;spacingRight=3;rotatable=0;labelPosition=right;points=[];portConstraint=eastwest;" parent="zkfFHV4jXpPFQw0GAbJ--17" vertex="1">
          <mxGeometry y="156" width="160" height="8" as="geometry" />
        </mxCell>
        <mxCell id="zkfFHV4jXpPFQw0GAbJ--24" value="Validate" style="text;align=left;verticalAlign=top;spacingLeft=4;spacingRight=4;overflow=hidden;rotatable=0;points=[[0,0.5],[1,0.5]];portConstraint=eastwest;" parent="zkfFHV4jXpPFQw0GAbJ--17" vertex="1">
          <mxGeometry y="164" width="160" height="26" as="geometry" />
        </mxCell>
        <mxCell id="zkfFHV4jXpPFQw0GAbJ--25" value="Output As Label" style="text;align=left;verticalAlign=top;spacingLeft=4;spacingRight=4;overflow=hidden;rotatable=0;points=[[0,0.5],[1,0.5]];portConstraint=eastwest;" parent="zkfFHV4jXpPFQw0GAbJ--17" vertex="1">
          <mxGeometry y="190" width="160" height="26" as="geometry" />
        </mxCell>
        <mxCell id="zkfFHV4jXpPFQw0GAbJ--26" value="" style="endArrow=open;shadow=0;strokeWidth=1;rounded=0;endFill=1;edgeStyle=elbowEdgeStyle;elbow=vertical;" parent="WIyWlLk6GJQsqaUBKTNV-1" source="zkfFHV4jXpPFQw0GAbJ--0" target="zkfFHV4jXpPFQw0GAbJ--17" edge="1">
          <mxGeometry x="0.5" y="41" relative="1" as="geometry">
            <mxPoint x="400" y="292" as="sourcePoint" />
            <mxPoint x="560" y="292" as="targetPoint" />
            <mxPoint x="-40" y="32" as="offset" />
          </mxGeometry>
        </mxCell>
        <mxCell id="zkfFHV4jXpPFQw0GAbJ--27" value="0..1" style="resizable=0;align=left;verticalAlign=bottom;labelBackgroundColor=none;fontSize=12;" parent="zkfFHV4jXpPFQw0GAbJ--26" connectable="0" vertex="1">
          <mxGeometry x="-1" relative="1" as="geometry">
            <mxPoint y="4" as="offset" />
          </mxGeometry>
        </mxCell>
        <mxCell id="zkfFHV4jXpPFQw0GAbJ--28" value="1" style="resizable=0;align=right;verticalAlign=bottom;labelBackgroundColor=none;fontSize=12;" parent="zkfFHV4jXpPFQw0GAbJ--26" connectable="0" vertex="1">
          <mxGeometry x="1" relative="1" as="geometry">
            <mxPoint x="-7" y="4" as="offset" />
          </mxGeometry>
        </mxCell>
        <mxCell id="zkfFHV4jXpPFQw0GAbJ--29" value="lives at" style="text;html=1;resizable=0;points=[];;align=center;verticalAlign=middle;labelBackgroundColor=none;rounded=0;shadow=0;strokeWidth=1;fontSize=12;" parent="zkfFHV4jXpPFQw0GAbJ--26" vertex="1" connectable="0">
          <mxGeometry x="0.5" y="49" relative="1" as="geometry">
            <mxPoint x="-38" y="40" as="offset" />
          </mxGeometry>
        </mxCell>
        <mxCell id="IeIEYbaCRBlBuXl4gxKe-0" value="" style="shape=image;verticalLabelPosition=bottom;verticalAlign=top;imageAspect=0;aspect=fixed;image=data:image/svg+xml,PHN2ZyB4bWxuczpzdmc9Imh0dHA6Ly93d3cudzMub3JnLzIwMDAvc3ZnIiB4bWxucz0iaHR0cDovL3d3dy53My5vcmcvMjAwMC9zdmciIHhtbG5zOnhsaW5rPSJodHRwOi8vd3d3LnczLm9yZy8xOTk5L3hsaW5rIiB2ZXJzaW9uPSIxLjAiIHdpZHRoPSIxMjgiIGhlaWdodD0iMTI4IiBpZD0ic3ZnMSIgdmlld0JveD0iMCAwIDEyOCAxMjgiPiYjeGE7ICA8ZGVmcyBpZD0iZGVmczMiPiYjeGE7ICAgIDxsaW5lYXJHcmFkaWVudCB4MT0iNzguMjQ1NTk4IiB5MT0iNzIuNjA4OTAyIiB4Mj0iMTkyLjM4NTciIHkyPSI3Mi42MDg5MDIiIGlkPSJsaW5lYXJHcmFkaWVudDY0MSIgZ3JhZGllbnRVbml0cz0idXNlclNwYWNlT25Vc2UiPiYjeGE7ICAgICAgPHN0b3AgaWQ9InN0b3A2NDIiIHN0eWxlPSJzdG9wLWNvbG9yOiNmOWZlZmY7c3RvcC1vcGFjaXR5OjEiIG9mZnNldD0iMCIvPiYjeGE7ICAgICAgPHN0b3AgaWQ9InN0b3A2NDMiIHN0eWxlPSJzdG9wLWNvbG9yOiNhZmI0YjY7c3RvcC1vcGFjaXR5OjEiIG9mZnNldD0iMSIvPiYjeGE7ICAgIDwvbGluZWFyR3JhZGllbnQ+JiN4YTsgICAgPGxpbmVhckdyYWRpZW50IGlkPSJsaW5lYXJHcmFkaWVudDQ1NCI+JiN4YTsgICAgICA8c3RvcCBpZD0ic3RvcDQ1NSIgc3R5bGU9InN0b3AtY29sb3I6I2ZmZmZmZjtzdG9wLW9wYWNpdHk6MSIgb2Zmc2V0PSIwIi8+JiN4YTsgICAgICA8c3RvcCBpZD0ic3RvcDQ1NyIgc3R5bGU9InN0b3AtY29sb3I6I2JlYmViZTtzdG9wLW9wYWNpdHk6MSIgb2Zmc2V0PSIwLjUiLz4mI3hhOyAgICAgIDxzdG9wIGlkPSJzdG9wNDU2IiBzdHlsZT0ic3RvcC1jb2xvcjojYjBiMGIwO3N0b3Atb3BhY2l0eToxIiBvZmZzZXQ9IjEiLz4mI3hhOyAgICA8L2xpbmVhckdyYWRpZW50PiYjeGE7ICAgIDxsaW5lYXJHcmFkaWVudCBpZD0ibGluZWFyR3JhZGllbnQ1MTMiPiYjeGE7ICAgICAgPHN0b3AgaWQ9InN0b3A1MTQiIHN0eWxlPSJzdG9wLWNvbG9yOiM2OTY5Njk7c3RvcC1vcGFjaXR5OjEiIG9mZnNldD0iMCIvPiYjeGE7ICAgICAgPHN0b3AgaWQ9InN0b3A1MTUiIHN0eWxlPSJzdG9wLWNvbG9yOiNmZmZmZmY7c3RvcC1vcGFjaXR5OjEiIG9mZnNldD0iMSIvPiYjeGE7ICAgIDwvbGluZWFyR3JhZGllbnQ+JiN4YTsgICAgPGxpbmVhckdyYWRpZW50IHgxPSI3OC4yNDU1OTgiIHkxPSI3Mi42MDg5MDIiIHgyPSIxOTIuMzg1NyIgeTI9IjcyLjYwODkwMiIgaWQ9ImxpbmVhckdyYWRpZW50NDc3IiBncmFkaWVudFVuaXRzPSJ1c2VyU3BhY2VPblVzZSI+JiN4YTsgICAgICA8c3RvcCBpZD0ic3RvcDQ3OCIgc3R5bGU9InN0b3AtY29sb3I6I2U0ZTllYTtzdG9wLW9wYWNpdHk6MSIgb2Zmc2V0PSIwIi8+JiN4YTsgICAgICA8c3RvcCBpZD0ic3RvcDQ3OSIgc3R5bGU9InN0b3AtY29sb3I6Izg1ODk4YTtzdG9wLW9wYWNpdHk6MSIgb2Zmc2V0PSIxIi8+JiN4YTsgICAgPC9saW5lYXJHcmFkaWVudD4mI3hhOyAgICA8bGluZWFyR3JhZGllbnQgaWQ9ImxpbmVhckdyYWRpZW50MTc3Ij4mI3hhOyAgICAgIDxzdG9wIGlkPSJzdG9wMTc4IiBzdHlsZT0ic3RvcC1jb2xvcjojZmZmZmZmO3N0b3Atb3BhY2l0eToxIiBvZmZzZXQ9IjAiLz4mI3hhOyAgICAgIDxzdG9wIGlkPSJzdG9wMTc5IiBzdHlsZT0ic3RvcC1jb2xvcjojYjBiMGIwO3N0b3Atb3BhY2l0eToxIiBvZmZzZXQ9IjEiLz4mI3hhOyAgICA8L2xpbmVhckdyYWRpZW50PiYjeGE7ICAgIDxsaW5lYXJHcmFkaWVudCBpZD0ibGluZWFyR3JhZGllbnQ1MDgiPiYjeGE7ICAgICAgPHN0b3AgaWQ9InN0b3A1MDkiIHN0eWxlPSJzdG9wLWNvbG9yOiNiMGIwYjA7c3RvcC1vcGFjaXR5OjEiIG9mZnNldD0iMCIvPiYjeGE7ICAgICAgPHN0b3AgaWQ9InN0b3A1MTAiIHN0eWxlPSJzdG9wLWNvbG9yOiNiMGIwYjA7c3RvcC1vcGFjaXR5OjEiIG9mZnNldD0iMSIvPiYjeGE7ICAgIDwvbGluZWFyR3JhZGllbnQ+JiN4YTsgICAgPGxpbmVhckdyYWRpZW50IGlkPSJsaW5lYXJHcmFkaWVudDQ1MjQiPiYjeGE7ICAgICAgPHN0b3AgaWQ9InN0b3A0NTI2IiBzdHlsZT0ic3RvcC1jb2xvcjojNDE3YWMzO3N0b3Atb3BhY2l0eToxIiBvZmZzZXQ9IjAiLz4mI3hhOyAgICAgIDxzdG9wIGlkPSJzdG9wNDUyOCIgc3R5bGU9InN0b3AtY29sb3I6IzM0NjVhNDtzdG9wLW9wYWNpdHk6MSIgb2Zmc2V0PSIxIi8+JiN4YTsgICAgPC9saW5lYXJHcmFkaWVudD4mI3hhOyAgICA8bGluZWFyR3JhZGllbnQgaWQ9ImxpbmVhckdyYWRpZW50NTQxMSI+JiN4YTsgICAgICA8c3RvcCBpZD0ic3RvcDU0MTMiIHN0eWxlPSJzdG9wLWNvbG9yOiNmZmZmZmY7c3RvcC1vcGFjaXR5OjEiIG9mZnNldD0iMCIvPiYjeGE7ICAgICAgPHN0b3AgaWQ9InN0b3A1NDE1IiBzdHlsZT0ic3RvcC1jb2xvcjojZmZmZmZmO3N0b3Atb3BhY2l0eTowIiBvZmZzZXQ9IjEiLz4mI3hhOyAgICA8L2xpbmVhckdyYWRpZW50PiYjeGE7ICAgIDxsaW5lYXJHcmFkaWVudCBpZD0ibGluZWFyR3JhZGllbnQxODc3Ij4mI3hhOyAgICAgIDxzdG9wIGlkPSJzdG9wMTg3OCIgc3R5bGU9InN0b3AtY29sb3I6IzAwMDAwMDtzdG9wLW9wYWNpdHk6MC4xNzk2NDA3MyIgb2Zmc2V0PSIwIi8+JiN4YTsgICAgICA8c3RvcCBpZD0ic3RvcDE4NzkiIHN0eWxlPSJzdG9wLWNvbG9yOiMwMDAwMDA7c3RvcC1vcGFjaXR5OjAiIG9mZnNldD0iMSIvPiYjeGE7ICAgIDwvbGluZWFyR3JhZGllbnQ+JiN4YTsgICAgPGxpbmVhckdyYWRpZW50IGlkPSJsaW5lYXJHcmFkaWVudDE4NjkiPiYjeGE7ICAgICAgPHN0b3AgaWQ9InN0b3AxODcwIiBzdHlsZT0ic3RvcC1jb2xvcjojZWZmM2Y0O3N0b3Atb3BhY2l0eToxIiBvZmZzZXQ9IjAiLz4mI3hhOyAgICAgIDxzdG9wIGlkPSJzdG9wMTg3MSIgc3R5bGU9InN0b3AtY29sb3I6IzkzOTU5NjtzdG9wLW9wYWNpdHk6MSIgb2Zmc2V0PSIxIi8+JiN4YTsgICAgPC9saW5lYXJHcmFkaWVudD4mI3hhOyAgICA8bGluZWFyR3JhZGllbnQgaWQ9ImxpbmVhckdyYWRpZW50NTA0OCI+JiN4YTsgICAgICA8c3RvcCBpZD0ic3RvcDUwNTAiIHN0eWxlPSJzdG9wLWNvbG9yOiMwMDAwMDA7c3RvcC1vcGFjaXR5OjAiIG9mZnNldD0iMCIvPiYjeGE7ICAgICAgPHN0b3AgaWQ9InN0b3A1MDU2IiBzdHlsZT0ic3RvcC1jb2xvcjojMDAwMDAwO3N0b3Atb3BhY2l0eToxIiBvZmZzZXQ9IjAuNSIvPiYjeGE7ICAgICAgPHN0b3AgaWQ9InN0b3A1MDUyIiBzdHlsZT0ic3RvcC1jb2xvcjojMDAwMDAwO3N0b3Atb3BhY2l0eTowIiBvZmZzZXQ9IjEiLz4mI3hhOyAgICA8L2xpbmVhckdyYWRpZW50PiYjeGE7ICAgIDxsaW5lYXJHcmFkaWVudCBpZD0ibGluZWFyR3JhZGllbnQ1MDYwIj4mI3hhOyAgICAgIDxzdG9wIGlkPSJzdG9wNTA2MiIgc3R5bGU9InN0b3AtY29sb3I6IzAwMDAwMDtzdG9wLW9wYWNpdHk6MSIgb2Zmc2V0PSIwIi8+JiN4YTsgICAgICA8c3RvcCBpZD0ic3RvcDUwNjQiIHN0eWxlPSJzdG9wLWNvbG9yOiMwMDAwMDA7c3RvcC1vcGFjaXR5OjAiIG9mZnNldD0iMSIvPiYjeGE7ICAgIDwvbGluZWFyR3JhZGllbnQ+JiN4YTsgICAgPGxpbmVhckdyYWRpZW50IHgxPSIzMDIuODU3MTUiIHkxPSIzNjYuNjQ3ODkiIHgyPSIzMDIuODU3MTUiIHkyPSI2MDkuNTA1MDciIGlkPSJsaW5lYXJHcmFkaWVudDI1MDYiIHhsaW5rOmhyZWY9IiNsaW5lYXJHcmFkaWVudDUwNDgiIGdyYWRpZW50VW5pdHM9InVzZXJTcGFjZU9uVXNlIiBncmFkaWVudFRyYW5zZm9ybT0ibWF0cml4KDIuNzc0Mzg5LDAsMCwxLjk2OTcwNiwtMTg5Mi4xNzksLTg3Mi44ODU0KSIvPiYjeGE7ICAgIDxyYWRpYWxHcmFkaWVudCBjeD0iNjA1LjcxNDI5IiBjeT0iNDg2LjY0Nzg5IiByPSIxMTcuMTQyODYiIGZ4PSI2MDUuNzE0MjkiIGZ5PSI0ODYuNjQ3ODkiIGlkPSJyYWRpYWxHcmFkaWVudDI1MDgiIHhsaW5rOmhyZWY9IiNsaW5lYXJHcmFkaWVudDUwNjAiIGdyYWRpZW50VW5pdHM9InVzZXJTcGFjZU9uVXNlIiBncmFkaWVudFRyYW5zZm9ybT0ibWF0cml4KDIuNzc0Mzg5LDAsMCwxLjk2OTcwNiwtMTg5MS42MzMsLTg3Mi44ODU0KSIvPiYjeGE7ICAgIDxyYWRpYWxHcmFkaWVudCBjeD0iNjA1LjcxNDI5IiBjeT0iNDg2LjY0Nzg5IiByPSIxMTcuMTQyODYiIGZ4PSI2MDUuNzE0MjkiIGZ5PSI0ODYuNjQ3ODkiIGlkPSJyYWRpYWxHcmFkaWVudDI1MTAiIHhsaW5rOmhyZWY9IiNsaW5lYXJHcmFkaWVudDUwNjAiIGdyYWRpZW50VW5pdHM9InVzZXJTcGFjZU9uVXNlIiBncmFkaWVudFRyYW5zZm9ybT0ibWF0cml4KC0yLjc3NDM4OSwwLDAsMS45Njk3MDYsMTEyLjc2MjMsLTg3Mi44ODU0KSIvPiYjeGE7ICAgIDxsaW5lYXJHcmFkaWVudCB4MT0iLTMzLjIyNDAxIiB5MT0iNzEuNzkxNjU2IiB4Mj0iNy4xMjgyNjAxIiB5Mj0iNzEuNzkxNjU2IiBpZD0ibGluZWFyR3JhZGllbnQyNTEyIiB4bGluazpocmVmPSIjbGluZWFyR3JhZGllbnQ0NTI0IiBncmFkaWVudFVuaXRzPSJ1c2VyU3BhY2VPblVzZSIvPiYjeGE7ICAgIDxsaW5lYXJHcmFkaWVudCB4MT0iLTE3LjAwMDA1NyIgeTE9IjczLjQ3OTE1NiIgeDI9Ii0xOS4zNDU3MTYiIHkyPSI5OC40NzkxNTYiIGlkPSJsaW5lYXJHcmFkaWVudDI1MTQiIHhsaW5rOmhyZWY9IiNsaW5lYXJHcmFkaWVudDU0MTEiIGdyYWRpZW50VW5pdHM9InVzZXJTcGFjZU9uVXNlIiBncmFkaWVudFRyYW5zZm9ybT0ibWF0cml4KDEsMCwwLDAuOTc5MjE2LDAsMS4yMjIyNDYpIi8+JiN4YTsgICAgPGxpbmVhckdyYWRpZW50IHgxPSItNC42Mzc1MTk4IiB5MT0iMTA0LjM4NzUyIiB4Mj0iLTQuNTIzOTIxIiB5Mj0iMTEwLjYxMzc4IiBpZD0ibGluZWFyR3JhZGllbnQyNTE2IiB4bGluazpocmVmPSIjbGluZWFyR3JhZGllbnQxODY5IiBncmFkaWVudFVuaXRzPSJ1c2VyU3BhY2VPblVzZSIgZ3JhZGllbnRUcmFuc2Zvcm09Im1hdHJpeCgxLjQzNjEzMSwwLDAsMC40NzUzMDYsLTYuNTA4MDg1LDYuODA1NTA5KSIvPiYjeGE7ICAgIDxsaW5lYXJHcmFkaWVudCB4MT0iLTg0LjMzNDM1OCIgeTE9IjkuNTU0ODI0OCIgeDI9Ii04NC4zMzQzNTgiIHkyPSIxMi40ODUwMzEiIGlkPSJsaW5lYXJHcmFkaWVudDI1MTgiIHhsaW5rOmhyZWY9IiNsaW5lYXJHcmFkaWVudDE4NzciIGdyYWRpZW50VW5pdHM9InVzZXJTcGFjZU9uVXNlIiBncmFkaWVudFRyYW5zZm9ybT0ibWF0cml4KC0wLjM1ODcyNiwwLDAsMS44Njc4NDUsLTM2Ljg1MTI1LDQxLjQyOTUpIi8+JiN4YTsgICAgPGxpbmVhckdyYWRpZW50IHgxPSI5Ljk2MjYxODgiIHkxPSI4LjcyNTE4MjUiIHgyPSIyMC4xMzU2MzkiIHkyPSIxNC43NDQ4MDkiIGlkPSJsaW5lYXJHcmFkaWVudDI1MjAiIHhsaW5rOmhyZWY9IiNsaW5lYXJHcmFkaWVudDUwOCIgZ3JhZGllbnRVbml0cz0idXNlclNwYWNlT25Vc2UiIGdyYWRpZW50VHJhbnNmb3JtPSJtYXRyaXgoMC45MDgwMzgsLTAuMTE4OTgxLDAuNDY3MDkyLDAuNDc0MTg3LDM3LjQ3Nzc2LDQ5LjgzNTQyKSIvPiYjeGE7ICAgIDxsaW5lYXJHcmFkaWVudCB4MT0iMTYuNTUxOTY0IiB5MT0iMTQuMDM1OTMyIiB4Mj0iMTMuNzYzMzg4IiB5Mj0iOS4zNjE1MzAzIiBpZD0ibGluZWFyR3JhZGllbnQyNTIyIiB4bGluazpocmVmPSIjbGluZWFyR3JhZGllbnQxNzciIGdyYWRpZW50VW5pdHM9InVzZXJTcGFjZU9uVXNlIiBncmFkaWVudFRyYW5zZm9ybT0ibWF0cml4KDEuMjM3MjIzLDAsMCwwLjc5OTAxMSwyNy43NzA0OCw0NS43MzgxNSkiLz4mI3hhOyAgICA8bGluZWFyR3JhZGllbnQgeDE9IjM2LjE1NTM4NCIgeTE9IjEzLjEzMTY3MyIgeDI9IjQ1LjEzMDkyOCIgeTI9IjIwLjY2NDQ3MyIgaWQ9ImxpbmVhckdyYWRpZW50MjUyNCIgeGxpbms6aHJlZj0iI2xpbmVhckdyYWRpZW50NDc3IiBncmFkaWVudFVuaXRzPSJ1c2VyU3BhY2VPblVzZSIgZ3JhZGllbnRUcmFuc2Zvcm09Im1hdHJpeCgwLjczMDUyMiwwLjY3NDQ1OCwwLjY3NDQ1OCwtMC43MzA1MjIsMi45MzQxMiwzNy4xNDM2NykiLz4mI3hhOyAgICA8bGluZWFyR3JhZGllbnQgeDE9Ii0zMi40MDA0NTUiIHkxPSIxOC44MTczMDciIHgyPSItMzYuMzAxMzk5IiB5Mj0iMjQuMDc3Mzg5IiBpZD0ibGluZWFyR3JhZGllbnQyNTI2IiB4bGluazpocmVmPSIjbGluZWFyR3JhZGllbnQ1MTMiIGdyYWRpZW50VW5pdHM9InVzZXJTcGFjZU9uVXNlIiBncmFkaWVudFRyYW5zZm9ybT0ibWF0cml4KC0xLjI4MTExNSwwLjI1MzI3OSwtMC40MTQ4NzgsMC44NTM2NTksMjcuOTExNyw0NS45Mzc2OCkiLz4mI3hhOyAgICA8bGluZWFyR3JhZGllbnQgeDE9IjI0LjE2MjkwOSIgeTE9IjIuMzQ4ODc5MyIgeDI9IjQwLjQzNzE3NiIgeTI9IjEwLjExNTM4OSIgaWQ9ImxpbmVhckdyYWRpZW50MjUyOCIgeGxpbms6aHJlZj0iI2xpbmVhckdyYWRpZW50NDc3IiBncmFkaWVudFVuaXRzPSJ1c2VyU3BhY2VPblVzZSIgZ3JhZGllbnRUcmFuc2Zvcm09Im1hdHJpeCgwLjk5NDI2MSwwLDAsMC45OTQyNjEsMjYuNzY5MjQsNDYuMjAxMzIpIi8+JiN4YTsgICAgPGxpbmVhckdyYWRpZW50IHgxPSI5Ljk2MjYxODgiIHkxPSI4LjcyNTE4MjUiIHgyPSIyMC4xMzU2MzkiIHkyPSIxNC43NDQ4MDkiIGlkPSJsaW5lYXJHcmFkaWVudDI1MzAiIHhsaW5rOmhyZWY9IiNsaW5lYXJHcmFkaWVudDE3NyIgZ3JhZGllbnRVbml0cz0idXNlclNwYWNlT25Vc2UiIGdyYWRpZW50VHJhbnNmb3JtPSJtYXRyaXgoMS4yMzcyMjMsMCwwLDAuNzk5MDExLDI2Ljc2OTI0LDQ2LjI0MTUyKSIvPiYjeGE7ICAgIDxsaW5lYXJHcmFkaWVudCB4MT0iMTI4LjM1MjEzIiB5MT0iMTE2LjY2NDA5IiB4Mj0iMTMyLjk4ODQzIiB5Mj0iMTIyLjYxMTQ1IiBpZD0ibGluZWFyR3JhZGllbnQyNTMyIiB4bGluazpocmVmPSIjbGluZWFyR3JhZGllbnQxNzciIGdyYWRpZW50VW5pdHM9InVzZXJTcGFjZU9uVXNlIiBncmFkaWVudFRyYW5zZm9ybT0ic2NhbGUoMS4yNDQzNjMsMC44MDM2MjQpIi8+JiN4YTsgICAgPGxpbmVhckdyYWRpZW50IHgxPSI4MS4zMDc1MzMiIHkxPSI2Ny4zNjQ5MDYiIHgyPSIxMzYuOTg1NiIgeTI9IjEzNy45NzE1MyIgaWQ9ImxpbmVhckdyYWRpZW50MjUzNCIgeGxpbms6aHJlZj0iI2xpbmVhckdyYWRpZW50MTc3IiBncmFkaWVudFVuaXRzPSJ1c2VyU3BhY2VPblVzZSIgZ3JhZGllbnRUcmFuc2Zvcm09InNjYWxlKDEuMjQ0MzYzLDAuODAzNjI0KSIvPiYjeGE7ICAgIDxsaW5lYXJHcmFkaWVudCB4MT0iMTQuMjQ4NjMxIiB5MT0iMTEuMTY1MTU5IiB4Mj0iMTguMDg2OTI5IiB5Mj0iMTQuNzQ4ODgiIGlkPSJsaW5lYXJHcmFkaWVudDI1MzYiIHhsaW5rOmhyZWY9IiNsaW5lYXJHcmFkaWVudDQ1NCIgZ3JhZGllbnRVbml0cz0idXNlclNwYWNlT25Vc2UiIGdyYWRpZW50VHJhbnNmb3JtPSJtYXRyaXgoMS4yMzcyMjMsMCwwLDAuNzk5MDExLDI2Ljc2OTI0LDQ2LjIwMTMyKSIvPiYjeGE7ICAgIDxyYWRpYWxHcmFkaWVudCBjeD0iMTYuMjgwOTk0IiBjeT0iMjAuNDUyNzgiIHI9IjUuNjQzNDkyNyIgZng9IjE2LjI4MDk5NCIgZnk9IjIwLjQ1Mjc4IiBpZD0icmFkaWFsR3JhZGllbnQyNTM4IiB4bGluazpocmVmPSIjbGluZWFyR3JhZGllbnQ0NzciIGdyYWRpZW50VW5pdHM9InVzZXJTcGFjZU9uVXNlIiBncmFkaWVudFRyYW5zZm9ybT0ibWF0cml4KDEuOTQ2NTM5LDAsMCwwLjUwNzg1MiwxOC4wNjksNDYuMTEzNDQpIi8+JiN4YTsgICAgPHJhZGlhbEdyYWRpZW50IGN4PSIzOS4xNDc3MiIgY3k9IjguOTMwMzQxNyIgcj0iMTMuMjY1NzYxIiBmeD0iMzkuMTQ3NzIiIGZ5PSI4LjkzMDM0MTciIGlkPSJyYWRpYWxHcmFkaWVudDI1NDAiIHhsaW5rOmhyZWY9IiNsaW5lYXJHcmFkaWVudDY0MSIgZ3JhZGllbnRVbml0cz0idXNlclNwYWNlT25Vc2UiIGdyYWRpZW50VHJhbnNmb3JtPSJtYXRyaXgoMC43NzY3NzMsMCwwLDAuOTA2NjA4LDMxLjM5NzYyLDQ4LjA1NTg5KSIvPiYjeGE7ICA8L2RlZnM+JiN4YTsgIDxnIGlkPSJsYXllcjIiLz4mI3hhOyAgPGcgaWQ9ImxheWVyMSIvPiYjeGE7ICA8ZyB0cmFuc2Zvcm09InRyYW5zbGF0ZSgzNy4wNjg4NSwtNDEuMTE3NjMpIiBpZD0iZzE2MjMiPiYjeGE7ICAgIDxnIHRyYW5zZm9ybT0ibWF0cml4KDIuMTQ3MiwwLDAsMi4xNDcyLDU1LjA0NTg0OSwtMzYuMTM5MzkpIiBpZD0iZzI0NzMiPiYjeGE7ICAgICAgPGcgdHJhbnNmb3JtPSJtYXRyaXgoMC4wMjE1NDAyNywwLDAsMC4wMjE3OTc3Myw2LjI0NzQ0LDgxLjkxNDM5KSIgaWQ9Imc2NzA3IiBzdHlsZT0iZGlzcGxheTppbmxpbmUiPiYjeGE7ICAgICAgICA8cmVjdCB3aWR0aD0iMTMzOS42MzM1IiBoZWlnaHQ9IjQ3OC4zNTcxOCIgeD0iLTE1NTkuMjUyMyIgeT0iLTE1MC42OTY4NSIgaWQ9InJlY3Q2NzA5IiBzdHlsZT0ib3BhY2l0eTowLjQwMjA2MTg1O2ZpbGw6dXJsKCNsaW5lYXJHcmFkaWVudDI1MDYpO2ZpbGwtb3BhY2l0eToxO2ZpbGwtcnVsZTpub256ZXJvO3N0cm9rZTpub25lO3N0cm9rZS13aWR0aDoxO21hcmtlcjpub25lO3Zpc2liaWxpdHk6dmlzaWJsZTtkaXNwbGF5OmlubGluZTtvdmVyZmxvdzp2aXNpYmxlIi8+JiN4YTsgICAgICAgIDxwYXRoIGQ9Im0gLTIxOS42MTg3NiwtMTUwLjY4MDM4IGMgMCwwIDAsNDc4LjMzMDc5IDAsNDc4LjMzMDc5IDE0Mi44NzQxNjYsMC45MDA0NSAzNDUuNDAwMjIsLTEwNy4xNjk2NiAzNDUuNDAwMTQsLTIzOS4xOTYxNzUgMCwtMTMyLjAyNjUzNyAtMTU5LjQzNjgxNiwtMjM5LjEzNDU5NSAtMzQ1LjQwMDE0LC0yMzkuMTM0NjE1IHoiIGlkPSJwYXRoNjcxMSIgc3R5bGU9Im9wYWNpdHk6MC40MDIwNjE4NTtmaWxsOnVybCgjcmFkaWFsR3JhZGllbnQyNTA4KTtmaWxsLW9wYWNpdHk6MTtmaWxsLXJ1bGU6bm9uemVybztzdHJva2U6bm9uZTtzdHJva2Utd2lkdGg6MTttYXJrZXI6bm9uZTt2aXNpYmlsaXR5OnZpc2libGU7ZGlzcGxheTppbmxpbmU7b3ZlcmZsb3c6dmlzaWJsZSIvPiYjeGE7ICAgICAgICA8cGF0aCBkPSJtIC0xNTU5LjI1MjMsLTE1MC42ODAzOCBjIDAsMCAwLDQ3OC4zMzA3OSAwLDQ3OC4zMzA3OSAtMTQyLjg3NDIsMC45MDA0NSAtMzQ1LjQwMDIsLTEwNy4xNjk2NiAtMzQ1LjQwMDIsLTIzOS4xOTYxNzUgMCwtMTMyLjAyNjUzNyAxNTkuNDM2OCwtMjM5LjEzNDU5NSAzNDUuNDAwMiwtMjM5LjEzNDYxNSB6IiBpZD0icGF0aDY3MTMiIHN0eWxlPSJvcGFjaXR5OjAuNDAyMDYxODU7ZmlsbDp1cmwoI3JhZGlhbEdyYWRpZW50MjUxMCk7ZmlsbC1vcGFjaXR5OjE7ZmlsbC1ydWxlOm5vbnplcm87c3Ryb2tlOm5vbmU7c3Ryb2tlLXdpZHRoOjE7bWFya2VyOm5vbmU7dmlzaWJpbGl0eTp2aXNpYmxlO2Rpc3BsYXk6aW5saW5lO292ZXJmbG93OnZpc2libGUiLz4mI3hhOyAgICAgIDwvZz4mI3hhOyAgICAgIDxwYXRoIGQ9Im0gLTMyLjcxMTYxNyw1Ny45MjA3NzIgYyAtMC4wNDMyMiwtMC4wMzM5MiAxLjY5Nzk2LDI0LjM5ODkzNiAxLjY5ODQ1NiwyNC40MDYzNDQgMC4xNjMzNDIsMi40NDAwMzQgMS41MzQ1MzYsMy4zMzE4MjYgMy4wNjkyOTcsMy4zMzU0NiAwLjA1NDg0LDEuMjRlLTQgMjguNzkyODY0NjUsLTAuMDAzMSAyOS40MDUxMjk2LC0wLjAwNTcgMi41ODQ2MDU1LC0wLjAxMDczIDMuMjE3ODA2MSwtMS41NjM2NjcgMy4zODc4Mjk2LC0zLjI2MDQxIDAuMDEzNjM3LC0wLjAzMzQ2IDEuNzUzOTI3OCwtMjQuNDQyMjU0IDEuNzY3NTYzNCwtMjQuNDc1NzEgLTEzLjEwOTQyNDQsMCAtMjYuMjE4ODQ5NiwwIC0zOS4zMjgyNzU2LDAgeiIgaWQ9InBhdGgxNzUxIiBzdHlsZT0iZmlsbDp1cmwoI2xpbmVhckdyYWRpZW50MjUxMik7ZmlsbC1vcGFjaXR5OjE7ZmlsbC1ydWxlOmV2ZW5vZGQ7c3Ryb2tlOiMyMDRhODc7c3Ryb2tlLXdpZHRoOjEuMDIzMjAzMDI7c3Ryb2tlLWxpbmVjYXA6YnV0dDtzdHJva2UtbGluZWpvaW46bWl0ZXI7c3Ryb2tlLW1pdGVybGltaXQ6NDtzdHJva2Utb3BhY2l0eToxIi8+JiN4YTsgICAgICA8cGF0aCBkPSJtIC0zMS40ODc2ODQsNTguODA0NjU5IGMgLTAuMDQwNTMsLTAuMDMxNTQgMS41MzAyMzksMjIuOTQ0MDI4IDEuNTMwMjM5LDIyLjk0NDAyOCAwLjE1MzE3NSwyLjI2OTM2NCAwLjg3NjUyMiwyLjg1Mzk3NSAyLjMxNTc1NSwyLjg1NzM1NSAwLDAgMjguMDAwNzEwMywtMC4wMDI5IDI4LjU3NDg2NjA1LC0wLjAwNTMgMi40MjM3MzE4NSwtMC4wMSAyLjcwNTAyMDE1LC0xLjM5MzA5NCAyLjg2NDQ2MDk1LC0yLjk3MTE1OCAwLDAgMS41ODIyNTgsLTIyLjc5MzgyMyAxLjU5NTA0NDksLTIyLjgyNDkzOSAtMTIuMjkzNDU0NSwwIC0yNC41ODY5MDk5LDAgLTM2Ljg4MDM2NTksMCB6IiBpZD0icGF0aDQ1MzYiIHN0eWxlPSJvcGFjaXR5OjAuMzI5NjcwMzM7ZmlsbDpub25lO3N0cm9rZTp1cmwoI2xpbmVhckdyYWRpZW50MjUxNCk7c3Ryb2tlLXdpZHRoOjEuMDIzMjAyNzg7c3Ryb2tlLWxpbmVjYXA6YnV0dDtzdHJva2UtbGluZWpvaW46bWl0ZXI7c3Ryb2tlLW1pdGVybGltaXQ6NDtzdHJva2Utb3BhY2l0eToxIi8+JiN4YTsgICAgICA8cGF0aCBkPSJtIC0yOS4wODI0OTksNDUuODI5NTYzIGMgLTEuMDIzODIyLDAuMDAyNCAtMS44ODA2OCwwLjAyNjMyIC0yLjM0NzQwNCwxLjAxMjI5NyAtMC4wODExMiwwLjE3MTM3MiAtMi41NTM4MDYsNy4xMjY2MzggLTIuNjcyNjg1LDcuMzkxODgyIC0xLjAxNzcyMywyLjI3MDczOCAtMC4wNzkxNyw1LjEzMTE1MSAxLjg4NjUzLDUuMTEyMDAyIDAuMzczODI4LC0wLjAwMzUgMzguNzM0NTEyLDAuMDE3NzMgMzkuMzI5MzYxMywwIDEuNjczMzEwOCwtMC4wNDkwMiAxLjg4NzQ0MDEsLTMuMzYxMzQ1IDEuMTY3MDkwNiwtNC44NTE0MDcgLTAuMDQwODEsLTAuMDg0NDIgLTMuMzg0MDMsLTcuNzQ3MjYzIC0zLjQ2OTI5NzEsLTcuODgyOTg5IC0wLjM5NDM3NiwtMC42MDYxNTkgLTEuMjc3NTQ2NiwtMC44NzE4MTUgLTEuOTMzNTc1MiwtMC44NDY5MzQgLTAuMTI5MjMyMiwwLjAwNSAtMzEuODMyMTE5NiwwLjA2NDg1IC0zMS45NjAwMjA2LDAuMDY1MTUgeiIgaWQ9InBhdGgxODQxIiBzdHlsZT0iZmlsbDp1cmwoI2xpbmVhckdyYWRpZW50MjUxNik7ZmlsbC1vcGFjaXR5OjE7ZmlsbC1ydWxlOmV2ZW5vZGQ7c3Ryb2tlOiM1NTU1NTU7c3Ryb2tlLXdpZHRoOjEuMDIzMjAzMTM7c3Ryb2tlLWxpbmVjYXA6YnV0dDtzdHJva2UtbGluZWpvaW46bWl0ZXI7c3Ryb2tlLW1pdGVybGltaXQ6NDtzdHJva2Utb3BhY2l0eToxIi8+JiN4YTsgICAgICA8cGF0aCBkPSJtIC0yOC45MDQxMTQsNDcuMjEwMjk1IGMgLTAuOTY1NTg4LC0wLjAxMzIzIC0xLjAyODQ2NSwtMC4wNTI3OSAtMS4yNDU4MjMsMC42NzE0NDcgLTAuMDUwMTgsMC4xNjcxODUgLTIuMDcxNzA2LDYuNzQ5MjMgLTIuMTUwOTQ3LDcuMDA0NjQ4IC0wLjI2OTQ4MiwwLjg2ODYyNSAwLjExMTU5LDEuMDk3ODY2IDEuMDQ2Nzg1LDEuMDgwMjA4IDAuMzMxMjksLTAuMDA2MyAzNi42MTM1MjIsMCAzNy4xNDA5NjkyLDAgMC43NDg3NzUsMCAwLjk3MDg4NzcsLTAuMjYxNDM1IDAuODAxNzQ3NCwtMC44Nzg0MzkgLTAuMDY4NzI5LC0wLjI1MDcxNiAtMi44ODI5NzI0LC03LjI3ODQwOCAtMi45NTg1NDUzLC03LjQwMzU2MyAtMC4zNDk1NDAxLC0wLjU1ODk0NyAtMC4yODg5MjA2LC0wLjU1NzMyIC0wLjg5OTQ0NzgsLTAuNTY1MiAtMC4xMTQ2MTQzLC0wLjAwMTUgLTMxLjYyMTM4NzUsMC4wOTI0NSAtMzEuNzM0NzM4NSwwLjA5MDkgeiIgaWQ9InBhdGgxODY0IiBzdHlsZT0iZmlsbDojMjA0YTg3O2ZpbGwtb3BhY2l0eToxO2ZpbGwtcnVsZTpldmVub2RkO3N0cm9rZTpub25lO3N0cm9rZS13aWR0aDowO21hcmtlcjpub25lO3Zpc2liaWxpdHk6dmlzaWJsZTtkaXNwbGF5OmJsb2NrIi8+JiN4YTsgICAgICA8cGF0aCBkPSJtIC0yOS40MjI3NCw0Ny4yMDIxNDggYyAtMC4zNjM1OTQsMC4wMjk0NCAtMC41Mzg0NzcsMC4xNDM3MTIgLTAuNjkwNjYyLDAuNjUxMTg1IC0wLjA1MDE4LDAuMTY3MzExIC0yLjA2OTQ4NSw2Ljc0NDYyNiAtMi4xNDg3MjYsNy4wMDAyMzcgLTAuMjY5NDgzLDAuODY5MjgxIDAuMDg4MDEsMS4xMDI5NzggMS4wMjMyMDIsMS4wODUzMDkgMC4wMTYyLC0zLjA0ZS00IDEuOTE0OTg0LDIuNTJlLTQgMi4wOTQ3MTksMCBsIC0wLjI3ODUzMywtOC43MzY3MzEgeiIgaWQ9InBhdGgxODgwIiBzdHlsZT0iZmlsbDojMTMyYzUyO2ZpbGwtb3BhY2l0eToxO2ZpbGwtcnVsZTpldmVub2RkO3N0cm9rZTpub25lO3N0cm9rZS13aWR0aDowO21hcmtlcjpub25lO3Zpc2liaWxpdHk6dmlzaWJsZTtkaXNwbGF5OmJsb2NrIi8+JiN4YTsgICAgICA8cGF0aCBkPSJtIDIuODgyMzI4Miw0Ny4xMTY3OCBjIDAuNDQxOTA1LDAuMDA0IDAuNTcxNjczMywtMC4wMDU0IDAuODU0MTc1NSwwLjU2MDU0NCAwLjAzODYzNCwwLjA3NzM5IDIuODE3OTY2Myw3LjA1Nzg0IDIuOTE3NzU3Miw3LjMxMzIyNyAwLjMzOTM3NDMsMC45ODQwMDQgLTAuMzA2OTgzLDAuOTYzNDI4IC0xLjMzMjE1NzgsMC45OTE5NyAtMC4xOTQ3NTY0LC0zLjA0ZS00IC0yLjQ5ODgxMjksLTAuMDIyODUgLTIuNzI1MTYwOSwtMC4wMjMxIGwgMC4yODUzODYsLTguODQyNjQyIHoiIGlkPSJwYXRoMTg4OCIgc3R5bGU9ImZpbGw6IzcyOWZjZjtmaWxsLW9wYWNpdHk6MTtmaWxsLXJ1bGU6ZXZlbm9kZDtzdHJva2U6bm9uZTtzdHJva2Utd2lkdGg6MDttYXJrZXI6bm9uZTt2aXNpYmlsaXR5OnZpc2libGU7ZGlzcGxheTpibG9jayIvPiYjeGE7ICAgICAgPHBhdGggZD0ibSA1Ljg2NzQ3MTksNTkuNzgzMTk5IC0zNS4xMDg2NDk5LDAuMDYzOTUgYyAyNi41ODE5NTg4LDAuNjE4MTg0IDMxLjgwNDU1NzUsMy41Mzg1NzcgMzUuMDQ0Njk5NywzLjM4OTM1OSBsIDAuMDYzOTUsLTMuNDUzMzEgeiIgaWQ9InBhdGgxODkzIiBzdHlsZT0iZmlsbDp1cmwoI2xpbmVhckdyYWRpZW50MjUxOCk7ZmlsbC1vcGFjaXR5OjE7ZmlsbC1ydWxlOm5vbnplcm87c3Ryb2tlOm5vbmU7c3Ryb2tlLXdpZHRoOjA7bWFya2VyOm5vbmU7dmlzaWJpbGl0eTp2aXNpYmxlO2Rpc3BsYXk6YmxvY2siLz4mI3hhOyAgICAgIDxnIHRyYW5zZm9ybT0idHJhbnNsYXRlKC01OC43NSwwKSIgaWQ9ImczNzAyIj4mI3hhOyAgICAgICAgPHBhdGggZD0ibSAzNy44NTU3MzQsNDMuNDc0MTg0IGMgMC4xNDI4MjgsLTAuMTcwODk0IDAuMTAzOTc4LC0wLjE2NDM5NyAtMC4yODg0NjksMC4xMzExMjIgLTEuNTY5NzksMS4xODIwNzUgLTQuMTY5Njg4LDMuNTY2NTI2IC00LjE2OTY4OCwzLjU2NjUyNiAwLDAgMC4yMjEyOTcsMC43MDA0NDggLTAuNDE5NTkyLDEuNzgzMjY0IC0wLjY0MDg4OSwxLjA4MjgxNSAtMi41Njk5OTUsLTAuNDcyMDQgLTIuNTY5OTk2LC0wLjQ3MjA0MSAtMC43MDA3NDEsLTAuNDcyMDk5IC0wLjI1NzU4NiwxLjI1NjA2NiAwLjYwMzE2MSwzLjE0NjkzNiAtMC45MTA3OTcsMC42ODE3NDcgLTEuNTczNDY3LDEuMzU3NjA5IC0xLjU3MzQ2NywxLjg2MTkzNiAtMWUtNiwxLjE5Mjk0NSAtMC4wODA4NywxLjA4MDYxNCAtMC4xNTczNDYsMS4zMTEyMjIgLTAuNDgwNzY3LDAuMDYzMDUgLTEuMDI0MzIsMC4wNzMzNSAtMS44MzU3MTIsMCAxLjc2NTk4MywtMC4wOTIwMSAyLjg1NjQ5NSwtMS41Mzc0OTQgMy4yOTExNjksLTEuMzExMjIyIDAuMDQ0NzYsMC4wMjc4MiAtMS4xMTYyNDMsMS4yMTc1OTIgLTEuMDYyMDkxLDEuMjE5NDM3IC0wLjAxODIzLDAuMDMxMSAtMC40OTgyNjQsMC4zODAyNTUgLTAuNDk4MjY0LDAuMzgwMjU1IGwgMTAuODgzMTUsLTAuMDUyNDUgYyAtOS4yOWUtNCwwLjAwODggMC4wMDE3LDAuMDE3NDEgMCwwLjAyNjIyIGwgMTAuMjUzNzYyLDAgYyAtMC4wMjE2MywwLjAzMTYzIC0wLjM1NDAzLC0wLjE4MzU3MSAtMC4zNTQwMywtMC4xODM1NzEgbCAxLjQ4MTY4MiwwLjE4MzU3MSAzLjU2NjUyNywwIGMgMC4wMTM2MywwLjAwMjkgLTAuMDE0OTgsMC4wMjM5MiAwLDAuMDI2MjMgMCwwIDIuNDY2NDk3LDAuNjg0MDQ5IDIuMjAyODU0LDEuOTE0Mzg0IC0wLjI2MzY0NCwxLjIzMDMzNiAtMC44OTE2MzIsMS41OTk2OTMgLTAuODkxNjMyLDEuNTk5NjkzIDFlLTYsLTJlLTYgMC4yNzc4NjIsMy40OTUwNzkgMC42MjkzODcsNS40Mjg0NjIgMC4zNTE1MiwxLjkzMzM4MiAtMC4yNjAwMzEsLTMuMjQ5MDM1IDAuOTcwMzA1LC0zLjc3NjMyMiAxLjIzMDMzNiwtMC41MjcyODYgNC40NjgxODEsMC44Nzc5OTUgNS44NzQyNzgsLTEuNDk0Nzk0IDEuNDA2MDk3LC0yLjM3Mjc4NyAwLjk4MDkxMywtMi4wMTM2ODggMC42MjkzODcsLTMuMDY4MjYxIC0wLjAwOTMsLTAuMDI3OTMgLTAuMDY3ODgsLTAuMDc1MiAtMC4wNzg2NywtMC4xMDQ4OTggbCAwLjE4MzU3MiwwIGMgMC41MDAyNTUsLTAuNTk5Njg1IDEuMDY2NjU5LC0xLjI5ODA2IDEuOTQwNjA5LC0yLjc1MzU2NyAtMi4xNTI3MzYsMS44MjMyMDYgLTIuMDU5NjcsMS44MjY3MzQgLTIuNDY1MDk4LDIuMjU1MzAzIC0wLjI3ODQ4MywtMC41NTYyNTEgLTAuNzEwMzYzLC0xLjIwODU1MSAtMS4zNjM2NzIsLTEuNjc4MzY2IGwgMC4xMzExMjEsLTAuMDI2MjIgYyAwLDAgLTAuMTI3MDY2LC0wLjA3MjQ1IDAuNTc2OTQsLTEuNTIxMDE4IDAuNzA0MDAzLC0xLjQ0ODU2MSAtNC41OTY4OTEsLTMuNDAzMDU1IC0zLjUxNDA3OCwtMi4zMDc3NTIgMC41ODg5ODEsMC41OTU3NzQgLTAuODI1MTQ4LDEuNTQyOTk1IC0yLjM2MDIwMSwyLjIwMjg1NSAtMC4xODM2NTQsLTAuMTM5NDIzIC0xLjg2MzAyNSwtMS4zNjE5MDQgLTMuMzA0MjgsLTEuOTQwNjEgLTAuMjk3NDIyLC0wLjI5MzEzNCAtMC40MDEyLC0wLjUzMTgyMSAtMC43NjA1MTIsLTAuODM5MTgzIDMuNzA1MTI2LC0yLjYwMTc3NCAtMy4wMDMwMDUsLTEuNjk5NTE2IC03LjIzNzk1LC00LjQzMTkzMyAyLjkzMTc1OSwxLjkyMzk1OCAzLjAwOTAzNywzLjk3NDk4MiAxLjk5MzA2LDUuNzE2OTMxIC0xLjEzMTA2OSwtMC4yNjE0ODcgLTIuMDU1ODc4LC0wLjY3NDE3NyAtMS43ODMyNjQsLTEuMjMyNTQ5IDAuNTI3MzQ5LC0xLjA4MDEyNSAtMi4wMDg5NTcsMC44MjAzNzUgLTIuNjIyNDQ1LDIuMjU1MzAzIC0wLjExMTE4MSwwLjAwNjkgLTAuMTk3MTUsLTAuMDkxNzQgLTAuMzE0NjkzLC0wLjA1MjQ1IC0wLjAwOCwtMC40MTQ0MzQgMC4wNTY3NywtMC44MDkzMjQgLTAuMDUyNDUsLTEuMjMyNTUgLTAuNjY1MzU1LC0yLjU3ODI0MyAtMi45NzA0MTksLTIuMDk0MDUxIC00LjkzMDE5OCwtMC4xMDQ4OTggLTAuODY0Mzc3LC0xLjIyMjQ1OCAtMi4zOTE5LC0yLjA0OTQzNiAtMi43NTM1NjgsLTIuODU4NDY2IC0wLjQwOTcxOCwtMC45MTY1MTIgMS43MjE5MjQsLTMuMDUzODQ1IDIuMTUwNDA1LC0zLjU2NjUyNiB6IG0gMy41MTQwNzgsNy45NDYwMTEgYyAwLjE2MTQwNSwwIC0wLjA0MTYyLDAuMzg5MDc2IC0wLjEzMTEyMiwwLjY1NTYxMSAtMC4wNDQ1NCwwLjAwNyAtMC4wODYwNiwwLjAyMDMzIC0wLjEzMTEyMywwLjAyNjIyIC0wLjAyNDU2LC0wLjM4NjAwNSAwLjAxMTE3LC0wLjY4MTgzNiAwLjI2MjI0NSwtMC42ODE4MzYgeiBtIDE1LjY4MjIyNSwwLjUyNDQ4OSBjIC0wLjI0MzMxNywwLjA5MTA1IC0wLjQ0NDIyOCwwLjI0ODYyIC0wLjY4MTgzNiwwLjMxNDY5MyAtMC4wNDIwMSwtMC4wNjIzNyAtMC4xMzk2NjUsLTAuMTQ2NjE1IC0wLjE4MzU3MSwtMC4yMDk3OTYgbCAwLjg2NTQwNywtMC4xMDQ4OTcgeiIgaWQ9InBhdGg2MTQiIHN0eWxlPSJmaWxsOm5vbmU7c3Ryb2tlOiM2ZDZkNmQ7c3Ryb2tlLXdpZHRoOjEuMDQ4OTc4MjE7c3Ryb2tlLWxpbmVjYXA6cm91bmQ7c3Ryb2tlLWxpbmVqb2luOnJvdW5kO3N0cm9rZS1taXRlcmxpbWl0OjQ7c3Ryb2tlLW9wYWNpdHk6MTtzdHJva2UtZGFzaG9mZnNldDowO21hcmtlcjpub25lO3Zpc2liaWxpdHk6dmlzaWJsZTtkaXNwbGF5OmlubGluZTtvdmVyZmxvdzp2aXNpYmxlIi8+JiN4YTsgICAgICAgIDxwYXRoIGQ9Im0gNDQuODM3ODMsNTMuNTkwMzQ4IDEyLjc4Mzg2NCwtMS43MzM5NzUgYyAwLDAgLTQuNDYwOTI4LC0zLjQxOTczNiAtNS4xMzY2NiwtMi4wMzU3IC0wLjY3NTcyOSwxLjM4NDAzOCAtNi43NzEyMzcsMC41OTI4MTUgLTYuMDk1NTA3LC0wLjc5MTIyMSAwLjY3NTczMSwtMS4zODQwMzggLTMuNzIxNDE2LDIuMTM2NDM0IC0yLjU5MTE4MiwzLjI4MzgzMyAxLjEzMDIzMiwxLjE0NzM5OSAxLjAzOTQ4NSwxLjI3NzA2MyAxLjAzOTQ4NSwxLjI3NzA2MyB6IiBpZD0icGF0aDUwNiIgc3R5bGU9ImZpbGw6dXJsKCNsaW5lYXJHcmFkaWVudDI1MjApO2ZpbGwtb3BhY2l0eToxO2ZpbGwtcnVsZTpldmVub2RkO3N0cm9rZTpub25lO3N0cm9rZS13aWR0aDoyLjIxMDc0OTYzO21hcmtlcjpub25lO3Zpc2liaWxpdHk6dmlzaWJsZTtkaXNwbGF5OmlubGluZTtvdmVyZmxvdzp2aXNpYmxlIi8+JiN4YTsgICAgICAgIDxwYXRoIGQ9Im0gMzguMTIyNzI0LDUwLjE4Nzc3MSBjIDIuMDIxMjY0LC0yLjI4NDkwNyA0LjU2OTgxNSwtMi45MDAwNzQgNS4yNzI4NjQsLTAuMTc1NzYyIDAuNzAzMDQ4LDIuNzI0MzE0IC0xLjA1NDU3Myw1Ljg4ODAzMiAtMS41ODE4NTksNC42NTc2OTYgLTAuNTI3Mjg4LC0xLjIzMDMzNSAtMS4xNDI0NTQsLTMuMjUxNTk4IC0wLjQzOTQwNiwtMy4yNTE1OTggMC43MDMwNDgsMCAtMS40OTM5NzgsMy4xNjM3MTcgLTEuNDkzOTc4LDMuMTYzNzE3IGwgLTEuNzU3NjIxLC00LjM5NDA1MyB6IiBpZD0icGF0aDQ1OSIgc3R5bGU9ImZpbGw6dXJsKCNsaW5lYXJHcmFkaWVudDI1MjIpO2ZpbGwtb3BhY2l0eToxO2ZpbGwtcnVsZTpldmVub2RkO3N0cm9rZTpub25lO3N0cm9rZS13aWR0aDoyLjIxMDc0OTYzO21hcmtlcjpub25lO3Zpc2liaWxpdHk6dmlzaWJsZTtkaXNwbGF5OmlubGluZTtvdmVyZmxvdzp2aXNpYmxlIi8+JiN4YTsgICAgICAgIDxwYXRoIGQ9Im0gMzAuNDEzMjg4LDQ4LjQ4NTAwMiBjIDAsMCAxLjkyNzE3OCwxLjU0MDA1NiAyLjU2ODA2NywwLjQ1NzIzOSAwLjY0MDg4OSwtMS4wODI4MTYgMC40MjczNiwtMS43NTgzOTQgMC40MjczNiwtMS43NTgzOTQgMCwwIDIuNTc4MjcxLC0yLjQwMzk0MiA0LjE0ODA2MSwtMy41ODYwMTYgMS41Njk3ODksLTEuMTgyMDc1IC0yLjM5OTQzMiwyLjIxMDIzMyAtMS44NTMxNDEsMy40MzIyNDkgMC41NDYyODksMS4yMjIwMTUgMy44ODkxOTEsMi4zOTQ2MjMgMy4zMTI3MjMsNS4wOTE4MjkgLTAuNTc2NDY3LDIuNjk3MjA1IC0wLjY2MDg1OSwyLjE0MDg1NyAtMS42MzQ1MDgsMi42NzcyMzYgLTAuOTczNjQ3LDAuNTM2Mzc3IC0zLjYxNjM0MywxLjMyNTkzMSAtNS4zOTQ0MSwtMS4xNTI5MzYgLTEuNzc4MDY5LC0yLjQ3ODg2NyAtMi41MzI3ODUsLTUuODA3MDUxIC0xLjU3NDE1MiwtNS4xNjEyMDcgeiIgaWQ9InBhdGg1MDQiIHN0eWxlPSJmaWxsOnVybCgjbGluZWFyR3JhZGllbnQyNTI0KTtmaWxsLW9wYWNpdHk6MTtmaWxsLXJ1bGU6bm9uemVybztzdHJva2U6bm9uZTtzdHJva2Utd2lkdGg6MTttYXJrZXI6bm9uZTt2aXNpYmlsaXR5OnZpc2libGU7ZGlzcGxheTppbmxpbmU7b3ZlcmZsb3c6dmlzaWJsZSIvPiYjeGE7ICAgICAgICA8cGF0aCBkPSJtIDYyLjc2Nzg2OCw1My4zOTU4NTQgLTEyLjc1ODkzNywyLjA5MDc4NSBjIC0wLjEzMTEyMiwtMC4zNjcxNDMgMy4yMjUwMiwtNC4zMTI1ODggNC4zMDc4MywtMy4yMTcyODYgMS4wODI4MTMsMS4wOTUzMDQgNi42MDUzLC0xLjYwMzQ3MyA1LjUyMjQ4NywtMi42OTg3NzUgLTEuMDgyODEyLC0xLjA5NTMwMyA0LjIwOTE4MywwLjgzNDMxMyAzLjUwNTE3OSwyLjI4Mjg3NCAtMC43MDQwMDQsMS40NDg1NjMgLTAuNTc2NTU5LDEuNTQyNDAyIC0wLjU3NjU1OSwxLjU0MjQwMiB6IiBpZD0icGF0aDUxMSIgc3R5bGU9ImZpbGw6dXJsKCNsaW5lYXJHcmFkaWVudDI1MjYpO2ZpbGwtb3BhY2l0eToxO2ZpbGwtcnVsZTpldmVub2RkO3N0cm9rZTpub25lO3N0cm9rZS13aWR0aDoyLjIxMDc0OTYzO21hcmtlcjpub25lO3Zpc2liaWxpdHk6dmlzaWJsZTtkaXNwbGF5OmlubGluZTtvdmVyZmxvdzp2aXNpYmxlIi8+JiN4YTsgICAgICAgIDxwYXRoIGQ9Im0gNDEuOTAyOTA0LDUwLjc5ODk4NiAwLjg3ODgxLDAuNzkwOTMgLTYuNTAzMTk5LDMuNjkxMDA0IDUuNjI0Mzg5LC00LjQ4MTkzNCB6IiBpZD0icGF0aDQ1OCIgc3R5bGU9ImZpbGw6I2ZmZmZmZjtmaWxsLW9wYWNpdHk6MTtmaWxsLXJ1bGU6ZXZlbm9kZDtzdHJva2U6bm9uZSIvPiYjeGE7ICAgICAgICA8cGF0aCBkPSJtIDQ2LjE3MDA5Miw0NC41MzkwNyBjIDguMzgyMjI3LDUuNTAwODE2IC01LjA1NTg1OSwxMy4zNjExMTUgLTcuMjcwNTI5LDguMjY0NzkxIDEuMjQwODgzLDAuOTE0MDc1IDEuMzI1MTg2LDEuODYwNTU1IDEuMTQ5NjEzLDIuNzk2MzU3IGwgMTkuNzI5ODU4LDAgYyAtMC43MTgzMzksLTAuMjEzMjA5IC0xLjM1MjA5NiwtMC40NjEzOSAtMi40ODU2NTIsLTAuNDk3MTMgMC45MjY4MjcsLTAuMzAzNzg5IC0wLjQ1ODEwNiwtMy4xOTA0OCAtMy44ODM4MywtNi4xMjA5MTYgMy43MDUxMjMsLTIuNjAxNzc0IC0zLjAwNDUxNywtMS43MTA2ODUgLTcuMjM5NDYsLTQuNDQzMTAyIHogbSAyMC4yODkxMjksOC4yOTU4NjIgYyAtMi42MzEyNDIsMi4yMjg0NjcgLTIuMjIxMjc0LDEuOTg0MjMyIC0zLjAxMzg1MywyLjc2NTI4NiBsIDEuMDg3NDczLDAgYyAwLjUwMDI1MywtMC41OTk2ODQgMS4wNTI0MjksLTEuMzA5Nzc5IDEuOTI2MzgsLTIuNzY1Mjg2IHoiIGlkPSJwYXRoMzU1IiBzdHlsZT0iZm9udC1zaXplOjEycHg7ZmlsbDp1cmwoI2xpbmVhckdyYWRpZW50MjUyOCk7ZmlsbC1vcGFjaXR5OjE7ZmlsbC1ydWxlOm5vbnplcm87c3Ryb2tlOm5vbmU7b3ZlcmZsb3c6dmlzaWJsZSIvPiYjeGE7ICAgICAgICA8cGF0aCBkPSJtIDI5LjE2OTA5Myw1NS42NDUyMjkgMTcuNDg4MzI3LC0wLjA4Nzg4IGMgMCwwIC0xLjMxODIxNCwtNS45NzU5MSAtMy43Nzg4ODQsLTQuMDQyNTI4IC0yLjQ2MDY3LDEuOTMzMzg0IC04Ljg3NTk4NiwtMC40Mzk0MDQgLTYuNDE1MzE1LC0yLjM3Mjc4OCAyLjQ2MDY2OCwtMS45MzMzODMgLTcuMDMwNDg1LDIuNDYwNjcgLTcuMDMwNDg1LDQuMzk0MDUyIDAsMS45MzMzODUgLTAuMjYzNjQzLDIuMTA5MTQ1IC0wLjI2MzY0MywyLjEwOTE0NSB6IiBpZD0icGF0aDQ0MiIgc3R5bGU9ImZpbGw6dXJsKCNsaW5lYXJHcmFkaWVudDI1MzApO2ZpbGwtb3BhY2l0eToxO2ZpbGwtcnVsZTpldmVub2RkO3N0cm9rZTpub25lO3N0cm9rZS13aWR0aDoyLjIxMDc0OTYzO21hcmtlcjpub25lO3Zpc2liaWxpdHk6dmlzaWJsZTtkaXNwbGF5OmlubGluZTtvdmVyZmxvdzp2aXNpYmxlIi8+JiN4YTsgICAgICAgIDxnIHRyYW5zZm9ybT0ibWF0cml4KDAuMjQxNDg1LDAsMCwwLjI0MTQ4NSwtOC4zOTE1LDMxLjI5MTMzKSIgaWQ9ImczNzgiIHN0eWxlPSJmb250LXNpemU6MTJweDtmaWxsOnVybCgjbGluZWFyR3JhZGllbnQyNTM0KTtmaWxsLW9wYWNpdHk6MTtmaWxsLXJ1bGU6ZXZlbm9kZDtzdHJva2U6bm9uZTtzdHJva2Utd2lkdGg6Mi4xMzMzMzMyMTttYXJrZXI6bm9uZTt2aXNpYmlsaXR5OnZpc2libGU7ZGlzcGxheTppbmxpbmU7b3ZlcmZsb3c6dmlzaWJsZSI+JiN4YTsgICAgICAgICAgPHBhdGggZD0iTSAxNjMuNjY4NTQsODguNzIzMDc5IEMgMTY0LjY5ODAzLDkyLjIwOTk5MiAxNTYuMjA1LDk4LjA3OSAxNDguNDI5LDk3LjM3NiBjIDcuMzEzLC0wLjM4MSA0Ljc1MSwwLjkyNiA2LjU1MSwxLjg2MyAyLjE1NywxLjM0MSAxMy44ODUwOCwtMy43MDQ2NTIgOC42ODg1NCwtMTAuNTE1OTIxIHoiIGlkPSJwYXRoMzc5IiBzdHlsZT0iZmlsbDp1cmwoI2xpbmVhckdyYWRpZW50MjUzMik7bWFya2VyOm5vbmU7dmlzaWJpbGl0eTp2aXNpYmxlO2Rpc3BsYXk6aW5saW5lO292ZXJmbG93OnZpc2libGUiLz4mI3hhOyAgICAgICAgPC9nPiYjeGE7ICAgICAgICA8cGF0aCBkPSJtIDQzLjIzMDA2MSw1MS45MTQwMjUgYyAtMS4zMTgyMTcsMC41MjcyODcgLTIuNDYwNjcsMy4wNzU4MzcgLTQuNjU3Njk3LDMuMTYzNzE5IC0yLjE5NzAyNywwLjA4Nzg4IDQuNjU3Njk3LDAuNjE1MTY2IDUuMzYwNzQ0LDAgMC43MDMwNDgsLTAuNjE1MTY4IC0wLjcwMzA0NywtMy4xNjM3MTkgLTAuNzAzMDQ3LC0zLjE2MzcxOSB6IiBpZD0icGF0aDQ0OCIgc3R5bGU9ImZpbGw6dXJsKCNsaW5lYXJHcmFkaWVudDI1MzYpO2ZpbGwtb3BhY2l0eToxO2ZpbGwtcnVsZTpldmVub2RkO3N0cm9rZTpub25lO3N0cm9rZS13aWR0aDoyLjIxMDc0OTYzO21hcmtlcjpub25lO3Zpc2liaWxpdHk6dmlzaWJsZTtkaXNwbGF5OmlubGluZTtvdmVyZmxvdzp2aXNpYmxlIi8+JiN4YTsgICAgICAgIDxwYXRoIGQ9Im0gNDIuNDM5MTMxLDU1LjUxNzE1IDkuMTM5NjMsMCBjIDAsMCAxLjQ5Mzk3NywtMi42MzY0MzMgLTEuOTMzMzg0LC0yLjQ2MDY3MSAtMy40MjczNjEsMC4xNzU3NjEgLTIuMjg0OTA3LDEuMjMwMzM2IC00LjA0MjUyOSwxLjU4MTg2IC0xLjc1NzYyLDAuMzUxNTI1IC0zLjE2MzcxNywwLjg3ODgxMSAtMy4xNjM3MTcsMC44Nzg4MTEgeiIgaWQ9InBhdGg0OTEiIHN0eWxlPSJmaWxsOnVybCgjcmFkaWFsR3JhZGllbnQyNTM4KTtmaWxsLW9wYWNpdHk6MTtmaWxsLXJ1bGU6bm9uemVybztzdHJva2U6bm9uZTtzdHJva2Utd2lkdGg6MTttYXJrZXI6bm9uZTt2aXNpYmlsaXR5OnZpc2libGU7ZGlzcGxheTppbmxpbmU7b3ZlcmZsb3c6dmlzaWJsZSIvPiYjeGE7ICAgICAgICA8cGF0aCBkPSJtIDU1LjAwNjEyLDU1LjYwNTAyOSBjIDAsMCAyLjQ2MDY3LDAuMTc1NzYzIDIuMTk3MDI3LDEuNDA2MDk4IC0wLjI2MzY0MiwxLjIzMDMzNCAtMC44Nzg4MTEsMS41ODE4NTkgLTAuODc4ODExLDEuNTgxODU5IDAsMCAwLjI2MzY0MywzLjUxNTI0MiAwLjYxNTE2OSw1LjQ0ODYyNSAwLjM1MTUyMywxLjkzMzM4MiAtMC4yNjM2NDQsLTMuMjUxNiAwLjk2NjY5LC0zLjc3ODg4NSAxLjIzMDMzNiwtMC41MjcyODcgNC40ODE5MzIsMC44Nzg4MSA1Ljg4ODAyOSwtMS40OTM5NzkgMS40MDYwOTgsLTIuMzcyNzg4IDAuOTY2NjkzLC0yLjAyMTI2NCAwLjYxNTE2NywtMy4wNzU4MzcgLTAuMzUxNTIzLC0xLjA1NDU3MSAtMS43NTc2MiwtMy40MjczNiAtNC43NDU1NzQsLTIuODEyMTkzIC0yLjk4Nzk1NiwwLjYxNTE2NyAtNS44MDAxNSwyLjU0ODU1IC00LjY1NzY5NywyLjcyNDMxMiB6IiBpZD0icGF0aDQ5OCIgc3R5bGU9ImZpbGw6dXJsKCNyYWRpYWxHcmFkaWVudDI1NDApO2ZpbGwtb3BhY2l0eToxO2ZpbGwtcnVsZTpub256ZXJvO3N0cm9rZTpub25lO3N0cm9rZS13aWR0aDoxO21hcmtlcjpub25lO3Zpc2liaWxpdHk6dmlzaWJsZTtkaXNwbGF5OmlubGluZTtvdmVyZmxvdzp2aXNpYmxlIi8+JiN4YTsgICAgICAgIDxwYXRoIGQ9Im0gMjkuMTkyMDg0LDU1LjYyNTY4NyAxMy4wODUyMiwtMC4wNDAyIGMgMCwwIDEuMjQxNTQsLTAuMjU1MjEzIDEuODY0NjQ2LC0wLjQxNjAxNCAwLjY0MTY0OSwtMC4zMjc2OTMgMS42MjkyLC0wLjMyMDYyIDIuMzIwNzI1LC0wLjY3NzE3OSAxLjI0NTc4NywtMC42NDIzNCAxLjAxMzY2NSwtMS40MTcyMjYgMy44NjkzNjMsLTEuNDM1NzY5IC0zLjQ2NzYzMywtMC4zNzA4NyAtMy4yNTM0NDIsMS4yMjQyODEgLTQuNTQxMjc0LDEuNTMxODc0IC0xLjA0NTE2NCwwLjI0OTYzIC0zLjA1MTE1NiwwLjk1Njg4NyAtMy40OTMzNjEsMC44OTY1ODcgLTAuNDQyMjAzLC0wLjA2MDMgLTEzLjEwNTMxOSwwLjE0MDcwMiAtMTMuMTA1MzE5LDAuMTQwNzAyIHoiIGlkPSJwYXRoNjQ0IiBzdHlsZT0iZmlsbDojZmZmZmZmO2ZpbGwtb3BhY2l0eToxO2ZpbGwtcnVsZTpldmVub2RkO3N0cm9rZTpub25lIi8+JiN4YTsgICAgICAgIDxwYXRoIGQ9Im0gMzYuNTI4NjUxLDUxLjA4MzA0NSBjIDAsMCAxLjg1MjYxMiwxLjQxODc5NSA0LjY0MzE0MiwxLjEwNTUxIDEuMjM5NzM1LC0wLjEzOTE4MSAxLjk4OTkxOCwtMC45ODQ5MDkgMi40OTI0MjQsLTEuMDQ1MjA5IDAuNTAyNTA0LC0wLjA2MDMgMC45MDQ1MDcsMC4yNDEyMDIgMC45MDQ1MDcsMC4yNDEyMDIgMCwwIC0wLjQ2MjMwNCwtMC4yMjExMDIgLTAuODg0NDA5LC0wLjEyMDYwMSAtMC40MjIxMDMsMC4xMDA1IC0xLjM4Njk5LDEuMTY4NDgzIC0yLjgxNDAyNCwxLjEyNTYxIC0zLjI1NjMxLC0wLjA5NzgzIC00LjM0MTY0LC0xLjMwNjUxMiAtNC4zNDE2NCwtMS4zMDY1MTIgeiIgaWQ9InBhdGg2NDUiIHN0eWxlPSJmaWxsOiNmZmZmZmY7ZmlsbC1vcGFjaXR5OjE7ZmlsbC1ydWxlOmV2ZW5vZGQ7c3Ryb2tlOm5vbmUiLz4mI3hhOyAgICAgICAgPHBhdGggZD0ibSA0Ni4xODg0NjEsNDQuNTY2MDk2IGMgMCwwIDMuMDA0MDQ2LDEuOTI4NTIzIDIuNzA3MzQ5LDQuMzM5MTc3IC0wLjI5NjY5NiwyLjQxMDY1NCAtMy4wNDExMzEsNC4yMjc5MTUgLTMuMDQxMTMxLDQuMjI3OTE1IDAsMCAzLjYyNTEwMSwtMi4yNzM4MSAzLjM3NDkxNCwtNC40NTA0MzcgLTAuMzcwODY5LC0zLjIyNjU2OCAtMy4wNDExMzIsLTQuMTE2NjU1IC0zLjA0MTEzMiwtNC4xMTY2NTUgeiIgaWQ9InBhdGg2NDYiIHN0eWxlPSJmaWxsOiNmZmZmZmY7ZmlsbC1vcGFjaXR5OjE7ZmlsbC1ydWxlOmV2ZW5vZGQ7c3Ryb2tlOm5vbmUiLz4mI3hhOyAgICAgICAgPHBhdGggZD0ibSA1My40NTc1MSw0OS4wMTY1MzQgYyAtMC4zMzM3ODMsLTAuNjMwNDc5IC0xLjkyODUyNCwtMS44OTE0MzYgLTMuMzAwNzQyLC0yLjE4ODEzMiAxLjk2NTYxLDAuNTE5MjE4IDMuNzA4Njk4LDEuODE3MjYyIDMuNzA4Njk4LDEuODE3MjYyIGwgLTAuNDA3OTU2LDAuMzcwODcgeiIgaWQ9InBhdGg2NDciIHN0eWxlPSJmaWxsOiMwMDAwMDA7ZmlsbC1vcGFjaXR5OjAuMTc4NTcxMzk7ZmlsbC1ydWxlOmV2ZW5vZGQ7c3Ryb2tlOm5vbmU7c3Ryb2tlLXdpZHRoOjFweDttYXJrZXI6bm9uZTt2aXNpYmlsaXR5OnZpc2libGU7ZGlzcGxheTppbmxpbmU7b3ZlcmZsb3c6dmlzaWJsZSIvPiYjeGE7ICAgICAgICA8cGF0aCBkPSJtIDM4LjQ4NTEyMSw0OS44MjA1MDMgYyAwLDAgMC44MzkxODIsMS4wMjI3NTQgMC41MjQ0ODksMi4yMjkwNzggMC43NjA1MSwwLjE1NzM0NiAxLjA3NTIwMiwwLjE4MzU3MSAxLjA3NTIwMiwwLjE4MzU3MSBMIDQwLjc2NjY1LDUxLjY4MjQ0IGMgMCwwIDAsLTEuNjI1OTE3IC0yLjI4MTUyOSwtMS44NjE5MzcgeiIgaWQ9InBhdGg2NDgiIHN0eWxlPSJmaWxsOiMwMDAwMDA7ZmlsbC1vcGFjaXR5OjAuMTc4NTcxMzk7ZmlsbC1ydWxlOmV2ZW5vZGQ7c3Ryb2tlOm5vbmUiLz4mI3hhOyAgICAgICAgPHBhdGggZD0ibSAzNi4xMTcyODEsNDkuNTM5NDAxIGMgMCwwIDEuNDk0Nzk0LC0wLjUyNDQ4OSAxLjEwMTQyOCwtMC4xNTczNDcgLTAuMzkzMzY3LDAuMzY3MTQyIDEuODYxOTM1LDIuMDE5MjgzIDEuODYxOTM1LDIuMDE5MjgzIDAsMCAwLDAuNTI0NDg5IC0wLjEwNDg5NiwwLjY1NTYxMiAtMC4xMDQ5LDAuMTMxMTIzIC0zLjg1NDk5NiwtMC45NDQwOCAtMi44NTg0NjcsLTIuNTE3NTQ4IHoiIGlkPSJwYXRoNjQ5IiBzdHlsZT0iZmlsbDojMDAwMDAwO2ZpbGwtb3BhY2l0eTowLjA3MTQyODU1O2ZpbGwtcnVsZTpldmVub2RkO3N0cm9rZTpub25lIi8+JiN4YTsgICAgICA8L2c+JiN4YTsgICAgPC9nPiYjeGE7ICA8L2c+JiN4YTs8L3N2Zz4=" vertex="1" parent="WIyWlLk6GJQsqaUBKTNV-1">
          <mxGeometry x="180" y="60" width="128" height="128" as="geometry" />
        </mxCell>
        <mxCell id="IeIEYbaCRBlBuXl4gxKe-1" value="" style="shape=image;verticalLabelPosition=bottom;verticalAlign=top;imageAspect=0;aspect=fixed;image=data:image/svg+xml,PHN2ZyB4bWxuczpzdmc9Imh0dHA6Ly93d3cudzMub3JnLzIwMDAvc3ZnIiB4bWxucz0iaHR0cDovL3d3dy53My5vcmcvMjAwMC9zdmciIHhtbG5zOnhsaW5rPSJodHRwOi8vd3d3LnczLm9yZy8xOTk5L3hsaW5rIiB2ZXJzaW9uPSIxLjAiIHdpZHRoPSIxMjgiIGhlaWdodD0iMTI4IiBpZD0ic3ZnMSIgdmlld0JveD0iMCAwIDEyOCAxMjgiPiYjeGE7ICA8ZGVmcyBpZD0iZGVmczMiPiYjeGE7ICAgIDxsaW5lYXJHcmFkaWVudCB4MT0iNzguMjQ1NTk4IiB5MT0iNzIuNjA4OTAyIiB4Mj0iMTkyLjM4NTciIHkyPSI3Mi42MDg5MDIiIGlkPSJsaW5lYXJHcmFkaWVudDY0MSIgZ3JhZGllbnRVbml0cz0idXNlclNwYWNlT25Vc2UiPiYjeGE7ICAgICAgPHN0b3AgaWQ9InN0b3A2NDIiIHN0eWxlPSJzdG9wLWNvbG9yOiNmOWZlZmY7c3RvcC1vcGFjaXR5OjEiIG9mZnNldD0iMCIvPiYjeGE7ICAgICAgPHN0b3AgaWQ9InN0b3A2NDMiIHN0eWxlPSJzdG9wLWNvbG9yOiNhZmI0YjY7c3RvcC1vcGFjaXR5OjEiIG9mZnNldD0iMSIvPiYjeGE7ICAgIDwvbGluZWFyR3JhZGllbnQ+JiN4YTsgICAgPGxpbmVhckdyYWRpZW50IGlkPSJsaW5lYXJHcmFkaWVudDQ1NCI+JiN4YTsgICAgICA8c3RvcCBpZD0ic3RvcDQ1NSIgc3R5bGU9InN0b3AtY29sb3I6I2ZmZmZmZjtzdG9wLW9wYWNpdHk6MSIgb2Zmc2V0PSIwIi8+JiN4YTsgICAgICA8c3RvcCBpZD0ic3RvcDQ1NyIgc3R5bGU9InN0b3AtY29sb3I6I2JlYmViZTtzdG9wLW9wYWNpdHk6MSIgb2Zmc2V0PSIwLjUiLz4mI3hhOyAgICAgIDxzdG9wIGlkPSJzdG9wNDU2IiBzdHlsZT0ic3RvcC1jb2xvcjojYjBiMGIwO3N0b3Atb3BhY2l0eToxIiBvZmZzZXQ9IjEiLz4mI3hhOyAgICA8L2xpbmVhckdyYWRpZW50PiYjeGE7ICAgIDxsaW5lYXJHcmFkaWVudCBpZD0ibGluZWFyR3JhZGllbnQ1MTMiPiYjeGE7ICAgICAgPHN0b3AgaWQ9InN0b3A1MTQiIHN0eWxlPSJzdG9wLWNvbG9yOiM2OTY5Njk7c3RvcC1vcGFjaXR5OjEiIG9mZnNldD0iMCIvPiYjeGE7ICAgICAgPHN0b3AgaWQ9InN0b3A1MTUiIHN0eWxlPSJzdG9wLWNvbG9yOiNmZmZmZmY7c3RvcC1vcGFjaXR5OjEiIG9mZnNldD0iMSIvPiYjeGE7ICAgIDwvbGluZWFyR3JhZGllbnQ+JiN4YTsgICAgPGxpbmVhckdyYWRpZW50IHgxPSI3OC4yNDU1OTgiIHkxPSI3Mi42MDg5MDIiIHgyPSIxOTIuMzg1NyIgeTI9IjcyLjYwODkwMiIgaWQ9ImxpbmVhckdyYWRpZW50NDc3IiBncmFkaWVudFVuaXRzPSJ1c2VyU3BhY2VPblVzZSI+JiN4YTsgICAgICA8c3RvcCBpZD0ic3RvcDQ3OCIgc3R5bGU9InN0b3AtY29sb3I6I2U0ZTllYTtzdG9wLW9wYWNpdHk6MSIgb2Zmc2V0PSIwIi8+JiN4YTsgICAgICA8c3RvcCBpZD0ic3RvcDQ3OSIgc3R5bGU9InN0b3AtY29sb3I6Izg1ODk4YTtzdG9wLW9wYWNpdHk6MSIgb2Zmc2V0PSIxIi8+JiN4YTsgICAgPC9saW5lYXJHcmFkaWVudD4mI3hhOyAgICA8bGluZWFyR3JhZGllbnQgaWQ9ImxpbmVhckdyYWRpZW50MTc3Ij4mI3hhOyAgICAgIDxzdG9wIGlkPSJzdG9wMTc4IiBzdHlsZT0ic3RvcC1jb2xvcjojZmZmZmZmO3N0b3Atb3BhY2l0eToxIiBvZmZzZXQ9IjAiLz4mI3hhOyAgICAgIDxzdG9wIGlkPSJzdG9wMTc5IiBzdHlsZT0ic3RvcC1jb2xvcjojYjBiMGIwO3N0b3Atb3BhY2l0eToxIiBvZmZzZXQ9IjEiLz4mI3hhOyAgICA8L2xpbmVhckdyYWRpZW50PiYjeGE7ICAgIDxsaW5lYXJHcmFkaWVudCBpZD0ibGluZWFyR3JhZGllbnQ1MDgiPiYjeGE7ICAgICAgPHN0b3AgaWQ9InN0b3A1MDkiIHN0eWxlPSJzdG9wLWNvbG9yOiNiMGIwYjA7c3RvcC1vcGFjaXR5OjEiIG9mZnNldD0iMCIvPiYjeGE7ICAgICAgPHN0b3AgaWQ9InN0b3A1MTAiIHN0eWxlPSJzdG9wLWNvbG9yOiNiMGIwYjA7c3RvcC1vcGFjaXR5OjEiIG9mZnNldD0iMSIvPiYjeGE7ICAgIDwvbGluZWFyR3JhZGllbnQ+JiN4YTsgICAgPGxpbmVhckdyYWRpZW50IGlkPSJsaW5lYXJHcmFkaWVudDQ1MjQiPiYjeGE7ICAgICAgPHN0b3AgaWQ9InN0b3A0NTI2IiBzdHlsZT0ic3RvcC1jb2xvcjojNDE3YWMzO3N0b3Atb3BhY2l0eToxIiBvZmZzZXQ9IjAiLz4mI3hhOyAgICAgIDxzdG9wIGlkPSJzdG9wNDUyOCIgc3R5bGU9InN0b3AtY29sb3I6IzM0NjVhNDtzdG9wLW9wYWNpdHk6MSIgb2Zmc2V0PSIxIi8+JiN4YTsgICAgPC9saW5lYXJHcmFkaWVudD4mI3hhOyAgICA8bGluZWFyR3JhZGllbnQgaWQ9ImxpbmVhckdyYWRpZW50NTQxMSI+JiN4YTsgICAgICA8c3RvcCBpZD0ic3RvcDU0MTMiIHN0eWxlPSJzdG9wLWNvbG9yOiNmZmZmZmY7c3RvcC1vcGFjaXR5OjEiIG9mZnNldD0iMCIvPiYjeGE7ICAgICAgPHN0b3AgaWQ9InN0b3A1NDE1IiBzdHlsZT0ic3RvcC1jb2xvcjojZmZmZmZmO3N0b3Atb3BhY2l0eTowIiBvZmZzZXQ9IjEiLz4mI3hhOyAgICA8L2xpbmVhckdyYWRpZW50PiYjeGE7ICAgIDxsaW5lYXJHcmFkaWVudCBpZD0ibGluZWFyR3JhZGllbnQxODc3Ij4mI3hhOyAgICAgIDxzdG9wIGlkPSJzdG9wMTg3OCIgc3R5bGU9InN0b3AtY29sb3I6IzAwMDAwMDtzdG9wLW9wYWNpdHk6MC4xNzk2NDA3MyIgb2Zmc2V0PSIwIi8+JiN4YTsgICAgICA8c3RvcCBpZD0ic3RvcDE4NzkiIHN0eWxlPSJzdG9wLWNvbG9yOiMwMDAwMDA7c3RvcC1vcGFjaXR5OjAiIG9mZnNldD0iMSIvPiYjeGE7ICAgIDwvbGluZWFyR3JhZGllbnQ+JiN4YTsgICAgPGxpbmVhckdyYWRpZW50IGlkPSJsaW5lYXJHcmFkaWVudDE4NjkiPiYjeGE7ICAgICAgPHN0b3AgaWQ9InN0b3AxODcwIiBzdHlsZT0ic3RvcC1jb2xvcjojZWZmM2Y0O3N0b3Atb3BhY2l0eToxIiBvZmZzZXQ9IjAiLz4mI3hhOyAgICAgIDxzdG9wIGlkPSJzdG9wMTg3MSIgc3R5bGU9InN0b3AtY29sb3I6IzkzOTU5NjtzdG9wLW9wYWNpdHk6MSIgb2Zmc2V0PSIxIi8+JiN4YTsgICAgPC9saW5lYXJHcmFkaWVudD4mI3hhOyAgICA8bGluZWFyR3JhZGllbnQgaWQ9ImxpbmVhckdyYWRpZW50NTA0OCI+JiN4YTsgICAgICA8c3RvcCBpZD0ic3RvcDUwNTAiIHN0eWxlPSJzdG9wLWNvbG9yOiMwMDAwMDA7c3RvcC1vcGFjaXR5OjAiIG9mZnNldD0iMCIvPiYjeGE7ICAgICAgPHN0b3AgaWQ9InN0b3A1MDU2IiBzdHlsZT0ic3RvcC1jb2xvcjojMDAwMDAwO3N0b3Atb3BhY2l0eToxIiBvZmZzZXQ9IjAuNSIvPiYjeGE7ICAgICAgPHN0b3AgaWQ9InN0b3A1MDUyIiBzdHlsZT0ic3RvcC1jb2xvcjojMDAwMDAwO3N0b3Atb3BhY2l0eTowIiBvZmZzZXQ9IjEiLz4mI3hhOyAgICA8L2xpbmVhckdyYWRpZW50PiYjeGE7ICAgIDxsaW5lYXJHcmFkaWVudCBpZD0ibGluZWFyR3JhZGllbnQ1MDYwIj4mI3hhOyAgICAgIDxzdG9wIGlkPSJzdG9wNTA2MiIgc3R5bGU9InN0b3AtY29sb3I6IzAwMDAwMDtzdG9wLW9wYWNpdHk6MSIgb2Zmc2V0PSIwIi8+JiN4YTsgICAgICA8c3RvcCBpZD0ic3RvcDUwNjQiIHN0eWxlPSJzdG9wLWNvbG9yOiMwMDAwMDA7c3RvcC1vcGFjaXR5OjAiIG9mZnNldD0iMSIvPiYjeGE7ICAgIDwvbGluZWFyR3JhZGllbnQ+JiN4YTsgICAgPGxpbmVhckdyYWRpZW50IHgxPSIzMDIuODU3MTUiIHkxPSIzNjYuNjQ3ODkiIHgyPSIzMDIuODU3MTUiIHkyPSI2MDkuNTA1MDciIGlkPSJsaW5lYXJHcmFkaWVudDI1MDYiIHhsaW5rOmhyZWY9IiNsaW5lYXJHcmFkaWVudDUwNDgiIGdyYWRpZW50VW5pdHM9InVzZXJTcGFjZU9uVXNlIiBncmFkaWVudFRyYW5zZm9ybT0ibWF0cml4KDIuNzc0Mzg5LDAsMCwxLjk2OTcwNiwtMTg5Mi4xNzksLTg3Mi44ODU0KSIvPiYjeGE7ICAgIDxyYWRpYWxHcmFkaWVudCBjeD0iNjA1LjcxNDI5IiBjeT0iNDg2LjY0Nzg5IiByPSIxMTcuMTQyODYiIGZ4PSI2MDUuNzE0MjkiIGZ5PSI0ODYuNjQ3ODkiIGlkPSJyYWRpYWxHcmFkaWVudDI1MDgiIHhsaW5rOmhyZWY9IiNsaW5lYXJHcmFkaWVudDUwNjAiIGdyYWRpZW50VW5pdHM9InVzZXJTcGFjZU9uVXNlIiBncmFkaWVudFRyYW5zZm9ybT0ibWF0cml4KDIuNzc0Mzg5LDAsMCwxLjk2OTcwNiwtMTg5MS42MzMsLTg3Mi44ODU0KSIvPiYjeGE7ICAgIDxyYWRpYWxHcmFkaWVudCBjeD0iNjA1LjcxNDI5IiBjeT0iNDg2LjY0Nzg5IiByPSIxMTcuMTQyODYiIGZ4PSI2MDUuNzE0MjkiIGZ5PSI0ODYuNjQ3ODkiIGlkPSJyYWRpYWxHcmFkaWVudDI1MTAiIHhsaW5rOmhyZWY9IiNsaW5lYXJHcmFkaWVudDUwNjAiIGdyYWRpZW50VW5pdHM9InVzZXJTcGFjZU9uVXNlIiBncmFkaWVudFRyYW5zZm9ybT0ibWF0cml4KC0yLjc3NDM4OSwwLDAsMS45Njk3MDYsMTEyLjc2MjMsLTg3Mi44ODU0KSIvPiYjeGE7ICAgIDxsaW5lYXJHcmFkaWVudCB4MT0iLTMzLjIyNDAxIiB5MT0iNzEuNzkxNjU2IiB4Mj0iNy4xMjgyNjAxIiB5Mj0iNzEuNzkxNjU2IiBpZD0ibGluZWFyR3JhZGllbnQyNTEyIiB4bGluazpocmVmPSIjbGluZWFyR3JhZGllbnQ0NTI0IiBncmFkaWVudFVuaXRzPSJ1c2VyU3BhY2VPblVzZSIvPiYjeGE7ICAgIDxsaW5lYXJHcmFkaWVudCB4MT0iLTE3LjAwMDA1NyIgeTE9IjczLjQ3OTE1NiIgeDI9Ii0xOS4zNDU3MTYiIHkyPSI5OC40NzkxNTYiIGlkPSJsaW5lYXJHcmFkaWVudDI1MTQiIHhsaW5rOmhyZWY9IiNsaW5lYXJHcmFkaWVudDU0MTEiIGdyYWRpZW50VW5pdHM9InVzZXJTcGFjZU9uVXNlIiBncmFkaWVudFRyYW5zZm9ybT0ibWF0cml4KDEsMCwwLDAuOTc5MjE2LDAsMS4yMjIyNDYpIi8+JiN4YTsgICAgPGxpbmVhckdyYWRpZW50IHgxPSItNC42Mzc1MTk4IiB5MT0iMTA0LjM4NzUyIiB4Mj0iLTQuNTIzOTIxIiB5Mj0iMTEwLjYxMzc4IiBpZD0ibGluZWFyR3JhZGllbnQyNTE2IiB4bGluazpocmVmPSIjbGluZWFyR3JhZGllbnQxODY5IiBncmFkaWVudFVuaXRzPSJ1c2VyU3BhY2VPblVzZSIgZ3JhZGllbnRUcmFuc2Zvcm09Im1hdHJpeCgxLjQzNjEzMSwwLDAsMC40NzUzMDYsLTYuNTA4MDg1LDYuODA1NTA5KSIvPiYjeGE7ICAgIDxsaW5lYXJHcmFkaWVudCB4MT0iLTg0LjMzNDM1OCIgeTE9IjkuNTU0ODI0OCIgeDI9Ii04NC4zMzQzNTgiIHkyPSIxMi40ODUwMzEiIGlkPSJsaW5lYXJHcmFkaWVudDI1MTgiIHhsaW5rOmhyZWY9IiNsaW5lYXJHcmFkaWVudDE4NzciIGdyYWRpZW50VW5pdHM9InVzZXJTcGFjZU9uVXNlIiBncmFkaWVudFRyYW5zZm9ybT0ibWF0cml4KC0wLjM1ODcyNiwwLDAsMS44Njc4NDUsLTM2Ljg1MTI1LDQxLjQyOTUpIi8+JiN4YTsgICAgPGxpbmVhckdyYWRpZW50IHgxPSI5Ljk2MjYxODgiIHkxPSI4LjcyNTE4MjUiIHgyPSIyMC4xMzU2MzkiIHkyPSIxNC43NDQ4MDkiIGlkPSJsaW5lYXJHcmFkaWVudDI1MjAiIHhsaW5rOmhyZWY9IiNsaW5lYXJHcmFkaWVudDUwOCIgZ3JhZGllbnRVbml0cz0idXNlclNwYWNlT25Vc2UiIGdyYWRpZW50VHJhbnNmb3JtPSJtYXRyaXgoMC45MDgwMzgsLTAuMTE4OTgxLDAuNDY3MDkyLDAuNDc0MTg3LDM3LjQ3Nzc2LDQ5LjgzNTQyKSIvPiYjeGE7ICAgIDxsaW5lYXJHcmFkaWVudCB4MT0iMTYuNTUxOTY0IiB5MT0iMTQuMDM1OTMyIiB4Mj0iMTMuNzYzMzg4IiB5Mj0iOS4zNjE1MzAzIiBpZD0ibGluZWFyR3JhZGllbnQyNTIyIiB4bGluazpocmVmPSIjbGluZWFyR3JhZGllbnQxNzciIGdyYWRpZW50VW5pdHM9InVzZXJTcGFjZU9uVXNlIiBncmFkaWVudFRyYW5zZm9ybT0ibWF0cml4KDEuMjM3MjIzLDAsMCwwLjc5OTAxMSwyNy43NzA0OCw0NS43MzgxNSkiLz4mI3hhOyAgICA8bGluZWFyR3JhZGllbnQgeDE9IjM2LjE1NTM4NCIgeTE9IjEzLjEzMTY3MyIgeDI9IjQ1LjEzMDkyOCIgeTI9IjIwLjY2NDQ3MyIgaWQ9ImxpbmVhckdyYWRpZW50MjUyNCIgeGxpbms6aHJlZj0iI2xpbmVhckdyYWRpZW50NDc3IiBncmFkaWVudFVuaXRzPSJ1c2VyU3BhY2VPblVzZSIgZ3JhZGllbnRUcmFuc2Zvcm09Im1hdHJpeCgwLjczMDUyMiwwLjY3NDQ1OCwwLjY3NDQ1OCwtMC43MzA1MjIsMi45MzQxMiwzNy4xNDM2NykiLz4mI3hhOyAgICA8bGluZWFyR3JhZGllbnQgeDE9Ii0zMi40MDA0NTUiIHkxPSIxOC44MTczMDciIHgyPSItMzYuMzAxMzk5IiB5Mj0iMjQuMDc3Mzg5IiBpZD0ibGluZWFyR3JhZGllbnQyNTI2IiB4bGluazpocmVmPSIjbGluZWFyR3JhZGllbnQ1MTMiIGdyYWRpZW50VW5pdHM9InVzZXJTcGFjZU9uVXNlIiBncmFkaWVudFRyYW5zZm9ybT0ibWF0cml4KC0xLjI4MTExNSwwLjI1MzI3OSwtMC40MTQ4NzgsMC44NTM2NTksMjcuOTExNyw0NS45Mzc2OCkiLz4mI3hhOyAgICA8bGluZWFyR3JhZGllbnQgeDE9IjI0LjE2MjkwOSIgeTE9IjIuMzQ4ODc5MyIgeDI9IjQwLjQzNzE3NiIgeTI9IjEwLjExNTM4OSIgaWQ9ImxpbmVhckdyYWRpZW50MjUyOCIgeGxpbms6aHJlZj0iI2xpbmVhckdyYWRpZW50NDc3IiBncmFkaWVudFVuaXRzPSJ1c2VyU3BhY2VPblVzZSIgZ3JhZGllbnRUcmFuc2Zvcm09Im1hdHJpeCgwLjk5NDI2MSwwLDAsMC45OTQyNjEsMjYuNzY5MjQsNDYuMjAxMzIpIi8+JiN4YTsgICAgPGxpbmVhckdyYWRpZW50IHgxPSI5Ljk2MjYxODgiIHkxPSI4LjcyNTE4MjUiIHgyPSIyMC4xMzU2MzkiIHkyPSIxNC43NDQ4MDkiIGlkPSJsaW5lYXJHcmFkaWVudDI1MzAiIHhsaW5rOmhyZWY9IiNsaW5lYXJHcmFkaWVudDE3NyIgZ3JhZGllbnRVbml0cz0idXNlclNwYWNlT25Vc2UiIGdyYWRpZW50VHJhbnNmb3JtPSJtYXRyaXgoMS4yMzcyMjMsMCwwLDAuNzk5MDExLDI2Ljc2OTI0LDQ2LjI0MTUyKSIvPiYjeGE7ICAgIDxsaW5lYXJHcmFkaWVudCB4MT0iMTI4LjM1MjEzIiB5MT0iMTE2LjY2NDA5IiB4Mj0iMTMyLjk4ODQzIiB5Mj0iMTIyLjYxMTQ1IiBpZD0ibGluZWFyR3JhZGllbnQyNTMyIiB4bGluazpocmVmPSIjbGluZWFyR3JhZGllbnQxNzciIGdyYWRpZW50VW5pdHM9InVzZXJTcGFjZU9uVXNlIiBncmFkaWVudFRyYW5zZm9ybT0ic2NhbGUoMS4yNDQzNjMsMC44MDM2MjQpIi8+JiN4YTsgICAgPGxpbmVhckdyYWRpZW50IHgxPSI4MS4zMDc1MzMiIHkxPSI2Ny4zNjQ5MDYiIHgyPSIxMzYuOTg1NiIgeTI9IjEzNy45NzE1MyIgaWQ9ImxpbmVhckdyYWRpZW50MjUzNCIgeGxpbms6aHJlZj0iI2xpbmVhckdyYWRpZW50MTc3IiBncmFkaWVudFVuaXRzPSJ1c2VyU3BhY2VPblVzZSIgZ3JhZGllbnRUcmFuc2Zvcm09InNjYWxlKDEuMjQ0MzYzLDAuODAzNjI0KSIvPiYjeGE7ICAgIDxsaW5lYXJHcmFkaWVudCB4MT0iMTQuMjQ4NjMxIiB5MT0iMTEuMTY1MTU5IiB4Mj0iMTguMDg2OTI5IiB5Mj0iMTQuNzQ4ODgiIGlkPSJsaW5lYXJHcmFkaWVudDI1MzYiIHhsaW5rOmhyZWY9IiNsaW5lYXJHcmFkaWVudDQ1NCIgZ3JhZGllbnRVbml0cz0idXNlclNwYWNlT25Vc2UiIGdyYWRpZW50VHJhbnNmb3JtPSJtYXRyaXgoMS4yMzcyMjMsMCwwLDAuNzk5MDExLDI2Ljc2OTI0LDQ2LjIwMTMyKSIvPiYjeGE7ICAgIDxyYWRpYWxHcmFkaWVudCBjeD0iMTYuMjgwOTk0IiBjeT0iMjAuNDUyNzgiIHI9IjUuNjQzNDkyNyIgZng9IjE2LjI4MDk5NCIgZnk9IjIwLjQ1Mjc4IiBpZD0icmFkaWFsR3JhZGllbnQyNTM4IiB4bGluazpocmVmPSIjbGluZWFyR3JhZGllbnQ0NzciIGdyYWRpZW50VW5pdHM9InVzZXJTcGFjZU9uVXNlIiBncmFkaWVudFRyYW5zZm9ybT0ibWF0cml4KDEuOTQ2NTM5LDAsMCwwLjUwNzg1MiwxOC4wNjksNDYuMTEzNDQpIi8+JiN4YTsgICAgPHJhZGlhbEdyYWRpZW50IGN4PSIzOS4xNDc3MiIgY3k9IjguOTMwMzQxNyIgcj0iMTMuMjY1NzYxIiBmeD0iMzkuMTQ3NzIiIGZ5PSI4LjkzMDM0MTciIGlkPSJyYWRpYWxHcmFkaWVudDI1NDAiIHhsaW5rOmhyZWY9IiNsaW5lYXJHcmFkaWVudDY0MSIgZ3JhZGllbnRVbml0cz0idXNlclNwYWNlT25Vc2UiIGdyYWRpZW50VHJhbnNmb3JtPSJtYXRyaXgoMC43NzY3NzMsMCwwLDAuOTA2NjA4LDMxLjM5NzYyLDQ4LjA1NTg5KSIvPiYjeGE7ICA8L2RlZnM+JiN4YTsgIDxnIGlkPSJsYXllcjIiLz4mI3hhOyAgPGcgaWQ9ImxheWVyMSIvPiYjeGE7ICA8ZyB0cmFuc2Zvcm09InRyYW5zbGF0ZSgzNy4wNjg4NSwtNDEuMTE3NjMpIiBpZD0iZzE2MjMiPiYjeGE7ICAgIDxnIHRyYW5zZm9ybT0ibWF0cml4KDIuMTQ3MiwwLDAsMi4xNDcyLDU1LjA0NTg0OSwtMzYuMTM5MzkpIiBpZD0iZzI0NzMiPiYjeGE7ICAgICAgPGcgdHJhbnNmb3JtPSJtYXRyaXgoMC4wMjE1NDAyNywwLDAsMC4wMjE3OTc3Myw2LjI0NzQ0LDgxLjkxNDM5KSIgaWQ9Imc2NzA3IiBzdHlsZT0iZGlzcGxheTppbmxpbmUiPiYjeGE7ICAgICAgICA8cmVjdCB3aWR0aD0iMTMzOS42MzM1IiBoZWlnaHQ9IjQ3OC4zNTcxOCIgeD0iLTE1NTkuMjUyMyIgeT0iLTE1MC42OTY4NSIgaWQ9InJlY3Q2NzA5IiBzdHlsZT0ib3BhY2l0eTowLjQwMjA2MTg1O2ZpbGw6dXJsKCNsaW5lYXJHcmFkaWVudDI1MDYpO2ZpbGwtb3BhY2l0eToxO2ZpbGwtcnVsZTpub256ZXJvO3N0cm9rZTpub25lO3N0cm9rZS13aWR0aDoxO21hcmtlcjpub25lO3Zpc2liaWxpdHk6dmlzaWJsZTtkaXNwbGF5OmlubGluZTtvdmVyZmxvdzp2aXNpYmxlIi8+JiN4YTsgICAgICAgIDxwYXRoIGQ9Im0gLTIxOS42MTg3NiwtMTUwLjY4MDM4IGMgMCwwIDAsNDc4LjMzMDc5IDAsNDc4LjMzMDc5IDE0Mi44NzQxNjYsMC45MDA0NSAzNDUuNDAwMjIsLTEwNy4xNjk2NiAzNDUuNDAwMTQsLTIzOS4xOTYxNzUgMCwtMTMyLjAyNjUzNyAtMTU5LjQzNjgxNiwtMjM5LjEzNDU5NSAtMzQ1LjQwMDE0LC0yMzkuMTM0NjE1IHoiIGlkPSJwYXRoNjcxMSIgc3R5bGU9Im9wYWNpdHk6MC40MDIwNjE4NTtmaWxsOnVybCgjcmFkaWFsR3JhZGllbnQyNTA4KTtmaWxsLW9wYWNpdHk6MTtmaWxsLXJ1bGU6bm9uemVybztzdHJva2U6bm9uZTtzdHJva2Utd2lkdGg6MTttYXJrZXI6bm9uZTt2aXNpYmlsaXR5OnZpc2libGU7ZGlzcGxheTppbmxpbmU7b3ZlcmZsb3c6dmlzaWJsZSIvPiYjeGE7ICAgICAgICA8cGF0aCBkPSJtIC0xNTU5LjI1MjMsLTE1MC42ODAzOCBjIDAsMCAwLDQ3OC4zMzA3OSAwLDQ3OC4zMzA3OSAtMTQyLjg3NDIsMC45MDA0NSAtMzQ1LjQwMDIsLTEwNy4xNjk2NiAtMzQ1LjQwMDIsLTIzOS4xOTYxNzUgMCwtMTMyLjAyNjUzNyAxNTkuNDM2OCwtMjM5LjEzNDU5NSAzNDUuNDAwMiwtMjM5LjEzNDYxNSB6IiBpZD0icGF0aDY3MTMiIHN0eWxlPSJvcGFjaXR5OjAuNDAyMDYxODU7ZmlsbDp1cmwoI3JhZGlhbEdyYWRpZW50MjUxMCk7ZmlsbC1vcGFjaXR5OjE7ZmlsbC1ydWxlOm5vbnplcm87c3Ryb2tlOm5vbmU7c3Ryb2tlLXdpZHRoOjE7bWFya2VyOm5vbmU7dmlzaWJpbGl0eTp2aXNpYmxlO2Rpc3BsYXk6aW5saW5lO292ZXJmbG93OnZpc2libGUiLz4mI3hhOyAgICAgIDwvZz4mI3hhOyAgICAgIDxwYXRoIGQ9Im0gLTMyLjcxMTYxNyw1Ny45MjA3NzIgYyAtMC4wNDMyMiwtMC4wMzM5MiAxLjY5Nzk2LDI0LjM5ODkzNiAxLjY5ODQ1NiwyNC40MDYzNDQgMC4xNjMzNDIsMi40NDAwMzQgMS41MzQ1MzYsMy4zMzE4MjYgMy4wNjkyOTcsMy4zMzU0NiAwLjA1NDg0LDEuMjRlLTQgMjguNzkyODY0NjUsLTAuMDAzMSAyOS40MDUxMjk2LC0wLjAwNTcgMi41ODQ2MDU1LC0wLjAxMDczIDMuMjE3ODA2MSwtMS41NjM2NjcgMy4zODc4Mjk2LC0zLjI2MDQxIDAuMDEzNjM3LC0wLjAzMzQ2IDEuNzUzOTI3OCwtMjQuNDQyMjU0IDEuNzY3NTYzNCwtMjQuNDc1NzEgLTEzLjEwOTQyNDQsMCAtMjYuMjE4ODQ5NiwwIC0zOS4zMjgyNzU2LDAgeiIgaWQ9InBhdGgxNzUxIiBzdHlsZT0iZmlsbDp1cmwoI2xpbmVhckdyYWRpZW50MjUxMik7ZmlsbC1vcGFjaXR5OjE7ZmlsbC1ydWxlOmV2ZW5vZGQ7c3Ryb2tlOiMyMDRhODc7c3Ryb2tlLXdpZHRoOjEuMDIzMjAzMDI7c3Ryb2tlLWxpbmVjYXA6YnV0dDtzdHJva2UtbGluZWpvaW46bWl0ZXI7c3Ryb2tlLW1pdGVybGltaXQ6NDtzdHJva2Utb3BhY2l0eToxIi8+JiN4YTsgICAgICA8cGF0aCBkPSJtIC0zMS40ODc2ODQsNTguODA0NjU5IGMgLTAuMDQwNTMsLTAuMDMxNTQgMS41MzAyMzksMjIuOTQ0MDI4IDEuNTMwMjM5LDIyLjk0NDAyOCAwLjE1MzE3NSwyLjI2OTM2NCAwLjg3NjUyMiwyLjg1Mzk3NSAyLjMxNTc1NSwyLjg1NzM1NSAwLDAgMjguMDAwNzEwMywtMC4wMDI5IDI4LjU3NDg2NjA1LC0wLjAwNTMgMi40MjM3MzE4NSwtMC4wMSAyLjcwNTAyMDE1LC0xLjM5MzA5NCAyLjg2NDQ2MDk1LC0yLjk3MTE1OCAwLDAgMS41ODIyNTgsLTIyLjc5MzgyMyAxLjU5NTA0NDksLTIyLjgyNDkzOSAtMTIuMjkzNDU0NSwwIC0yNC41ODY5MDk5LDAgLTM2Ljg4MDM2NTksMCB6IiBpZD0icGF0aDQ1MzYiIHN0eWxlPSJvcGFjaXR5OjAuMzI5NjcwMzM7ZmlsbDpub25lO3N0cm9rZTp1cmwoI2xpbmVhckdyYWRpZW50MjUxNCk7c3Ryb2tlLXdpZHRoOjEuMDIzMjAyNzg7c3Ryb2tlLWxpbmVjYXA6YnV0dDtzdHJva2UtbGluZWpvaW46bWl0ZXI7c3Ryb2tlLW1pdGVybGltaXQ6NDtzdHJva2Utb3BhY2l0eToxIi8+JiN4YTsgICAgICA8cGF0aCBkPSJtIC0yOS4wODI0OTksNDUuODI5NTYzIGMgLTEuMDIzODIyLDAuMDAyNCAtMS44ODA2OCwwLjAyNjMyIC0yLjM0NzQwNCwxLjAxMjI5NyAtMC4wODExMiwwLjE3MTM3MiAtMi41NTM4MDYsNy4xMjY2MzggLTIuNjcyNjg1LDcuMzkxODgyIC0xLjAxNzcyMywyLjI3MDczOCAtMC4wNzkxNyw1LjEzMTE1MSAxLjg4NjUzLDUuMTEyMDAyIDAuMzczODI4LC0wLjAwMzUgMzguNzM0NTEyLDAuMDE3NzMgMzkuMzI5MzYxMywwIDEuNjczMzEwOCwtMC4wNDkwMiAxLjg4NzQ0MDEsLTMuMzYxMzQ1IDEuMTY3MDkwNiwtNC44NTE0MDcgLTAuMDQwODEsLTAuMDg0NDIgLTMuMzg0MDMsLTcuNzQ3MjYzIC0zLjQ2OTI5NzEsLTcuODgyOTg5IC0wLjM5NDM3NiwtMC42MDYxNTkgLTEuMjc3NTQ2NiwtMC44NzE4MTUgLTEuOTMzNTc1MiwtMC44NDY5MzQgLTAuMTI5MjMyMiwwLjAwNSAtMzEuODMyMTE5NiwwLjA2NDg1IC0zMS45NjAwMjA2LDAuMDY1MTUgeiIgaWQ9InBhdGgxODQxIiBzdHlsZT0iZmlsbDp1cmwoI2xpbmVhckdyYWRpZW50MjUxNik7ZmlsbC1vcGFjaXR5OjE7ZmlsbC1ydWxlOmV2ZW5vZGQ7c3Ryb2tlOiM1NTU1NTU7c3Ryb2tlLXdpZHRoOjEuMDIzMjAzMTM7c3Ryb2tlLWxpbmVjYXA6YnV0dDtzdHJva2UtbGluZWpvaW46bWl0ZXI7c3Ryb2tlLW1pdGVybGltaXQ6NDtzdHJva2Utb3BhY2l0eToxIi8+JiN4YTsgICAgICA8cGF0aCBkPSJtIC0yOC45MDQxMTQsNDcuMjEwMjk1IGMgLTAuOTY1NTg4LC0wLjAxMzIzIC0xLjAyODQ2NSwtMC4wNTI3OSAtMS4yNDU4MjMsMC42NzE0NDcgLTAuMDUwMTgsMC4xNjcxODUgLTIuMDcxNzA2LDYuNzQ5MjMgLTIuMTUwOTQ3LDcuMDA0NjQ4IC0wLjI2OTQ4MiwwLjg2ODYyNSAwLjExMTU5LDEuMDk3ODY2IDEuMDQ2Nzg1LDEuMDgwMjA4IDAuMzMxMjksLTAuMDA2MyAzNi42MTM1MjIsMCAzNy4xNDA5NjkyLDAgMC43NDg3NzUsMCAwLjk3MDg4NzcsLTAuMjYxNDM1IDAuODAxNzQ3NCwtMC44Nzg0MzkgLTAuMDY4NzI5LC0wLjI1MDcxNiAtMi44ODI5NzI0LC03LjI3ODQwOCAtMi45NTg1NDUzLC03LjQwMzU2MyAtMC4zNDk1NDAxLC0wLjU1ODk0NyAtMC4yODg5MjA2LC0wLjU1NzMyIC0wLjg5OTQ0NzgsLTAuNTY1MiAtMC4xMTQ2MTQzLC0wLjAwMTUgLTMxLjYyMTM4NzUsMC4wOTI0NSAtMzEuNzM0NzM4NSwwLjA5MDkgeiIgaWQ9InBhdGgxODY0IiBzdHlsZT0iZmlsbDojMjA0YTg3O2ZpbGwtb3BhY2l0eToxO2ZpbGwtcnVsZTpldmVub2RkO3N0cm9rZTpub25lO3N0cm9rZS13aWR0aDowO21hcmtlcjpub25lO3Zpc2liaWxpdHk6dmlzaWJsZTtkaXNwbGF5OmJsb2NrIi8+JiN4YTsgICAgICA8cGF0aCBkPSJtIC0yOS40MjI3NCw0Ny4yMDIxNDggYyAtMC4zNjM1OTQsMC4wMjk0NCAtMC41Mzg0NzcsMC4xNDM3MTIgLTAuNjkwNjYyLDAuNjUxMTg1IC0wLjA1MDE4LDAuMTY3MzExIC0yLjA2OTQ4NSw2Ljc0NDYyNiAtMi4xNDg3MjYsNy4wMDAyMzcgLTAuMjY5NDgzLDAuODY5MjgxIDAuMDg4MDEsMS4xMDI5NzggMS4wMjMyMDIsMS4wODUzMDkgMC4wMTYyLC0zLjA0ZS00IDEuOTE0OTg0LDIuNTJlLTQgMi4wOTQ3MTksMCBsIC0wLjI3ODUzMywtOC43MzY3MzEgeiIgaWQ9InBhdGgxODgwIiBzdHlsZT0iZmlsbDojMTMyYzUyO2ZpbGwtb3BhY2l0eToxO2ZpbGwtcnVsZTpldmVub2RkO3N0cm9rZTpub25lO3N0cm9rZS13aWR0aDowO21hcmtlcjpub25lO3Zpc2liaWxpdHk6dmlzaWJsZTtkaXNwbGF5OmJsb2NrIi8+JiN4YTsgICAgICA8cGF0aCBkPSJtIDIuODgyMzI4Miw0Ny4xMTY3OCBjIDAuNDQxOTA1LDAuMDA0IDAuNTcxNjczMywtMC4wMDU0IDAuODU0MTc1NSwwLjU2MDU0NCAwLjAzODYzNCwwLjA3NzM5IDIuODE3OTY2Myw3LjA1Nzg0IDIuOTE3NzU3Miw3LjMxMzIyNyAwLjMzOTM3NDMsMC45ODQwMDQgLTAuMzA2OTgzLDAuOTYzNDI4IC0xLjMzMjE1NzgsMC45OTE5NyAtMC4xOTQ3NTY0LC0zLjA0ZS00IC0yLjQ5ODgxMjksLTAuMDIyODUgLTIuNzI1MTYwOSwtMC4wMjMxIGwgMC4yODUzODYsLTguODQyNjQyIHoiIGlkPSJwYXRoMTg4OCIgc3R5bGU9ImZpbGw6IzcyOWZjZjtmaWxsLW9wYWNpdHk6MTtmaWxsLXJ1bGU6ZXZlbm9kZDtzdHJva2U6bm9uZTtzdHJva2Utd2lkdGg6MDttYXJrZXI6bm9uZTt2aXNpYmlsaXR5OnZpc2libGU7ZGlzcGxheTpibG9jayIvPiYjeGE7ICAgICAgPHBhdGggZD0ibSA1Ljg2NzQ3MTksNTkuNzgzMTk5IC0zNS4xMDg2NDk5LDAuMDYzOTUgYyAyNi41ODE5NTg4LDAuNjE4MTg0IDMxLjgwNDU1NzUsMy41Mzg1NzcgMzUuMDQ0Njk5NywzLjM4OTM1OSBsIDAuMDYzOTUsLTMuNDUzMzEgeiIgaWQ9InBhdGgxODkzIiBzdHlsZT0iZmlsbDp1cmwoI2xpbmVhckdyYWRpZW50MjUxOCk7ZmlsbC1vcGFjaXR5OjE7ZmlsbC1ydWxlOm5vbnplcm87c3Ryb2tlOm5vbmU7c3Ryb2tlLXdpZHRoOjA7bWFya2VyOm5vbmU7dmlzaWJpbGl0eTp2aXNpYmxlO2Rpc3BsYXk6YmxvY2siLz4mI3hhOyAgICAgIDxnIHRyYW5zZm9ybT0idHJhbnNsYXRlKC01OC43NSwwKSIgaWQ9ImczNzAyIj4mI3hhOyAgICAgICAgPHBhdGggZD0ibSAzNy44NTU3MzQsNDMuNDc0MTg0IGMgMC4xNDI4MjgsLTAuMTcwODk0IDAuMTAzOTc4LC0wLjE2NDM5NyAtMC4yODg0NjksMC4xMzExMjIgLTEuNTY5NzksMS4xODIwNzUgLTQuMTY5Njg4LDMuNTY2NTI2IC00LjE2OTY4OCwzLjU2NjUyNiAwLDAgMC4yMjEyOTcsMC43MDA0NDggLTAuNDE5NTkyLDEuNzgzMjY0IC0wLjY0MDg4OSwxLjA4MjgxNSAtMi41Njk5OTUsLTAuNDcyMDQgLTIuNTY5OTk2LC0wLjQ3MjA0MSAtMC43MDA3NDEsLTAuNDcyMDk5IC0wLjI1NzU4NiwxLjI1NjA2NiAwLjYwMzE2MSwzLjE0NjkzNiAtMC45MTA3OTcsMC42ODE3NDcgLTEuNTczNDY3LDEuMzU3NjA5IC0xLjU3MzQ2NywxLjg2MTkzNiAtMWUtNiwxLjE5Mjk0NSAtMC4wODA4NywxLjA4MDYxNCAtMC4xNTczNDYsMS4zMTEyMjIgLTAuNDgwNzY3LDAuMDYzMDUgLTEuMDI0MzIsMC4wNzMzNSAtMS44MzU3MTIsMCAxLjc2NTk4MywtMC4wOTIwMSAyLjg1NjQ5NSwtMS41Mzc0OTQgMy4yOTExNjksLTEuMzExMjIyIDAuMDQ0NzYsMC4wMjc4MiAtMS4xMTYyNDMsMS4yMTc1OTIgLTEuMDYyMDkxLDEuMjE5NDM3IC0wLjAxODIzLDAuMDMxMSAtMC40OTgyNjQsMC4zODAyNTUgLTAuNDk4MjY0LDAuMzgwMjU1IGwgMTAuODgzMTUsLTAuMDUyNDUgYyAtOS4yOWUtNCwwLjAwODggMC4wMDE3LDAuMDE3NDEgMCwwLjAyNjIyIGwgMTAuMjUzNzYyLDAgYyAtMC4wMjE2MywwLjAzMTYzIC0wLjM1NDAzLC0wLjE4MzU3MSAtMC4zNTQwMywtMC4xODM1NzEgbCAxLjQ4MTY4MiwwLjE4MzU3MSAzLjU2NjUyNywwIGMgMC4wMTM2MywwLjAwMjkgLTAuMDE0OTgsMC4wMjM5MiAwLDAuMDI2MjMgMCwwIDIuNDY2NDk3LDAuNjg0MDQ5IDIuMjAyODU0LDEuOTE0Mzg0IC0wLjI2MzY0NCwxLjIzMDMzNiAtMC44OTE2MzIsMS41OTk2OTMgLTAuODkxNjMyLDEuNTk5NjkzIDFlLTYsLTJlLTYgMC4yNzc4NjIsMy40OTUwNzkgMC42MjkzODcsNS40Mjg0NjIgMC4zNTE1MiwxLjkzMzM4MiAtMC4yNjAwMzEsLTMuMjQ5MDM1IDAuOTcwMzA1LC0zLjc3NjMyMiAxLjIzMDMzNiwtMC41MjcyODYgNC40NjgxODEsMC44Nzc5OTUgNS44NzQyNzgsLTEuNDk0Nzk0IDEuNDA2MDk3LC0yLjM3Mjc4NyAwLjk4MDkxMywtMi4wMTM2ODggMC42MjkzODcsLTMuMDY4MjYxIC0wLjAwOTMsLTAuMDI3OTMgLTAuMDY3ODgsLTAuMDc1MiAtMC4wNzg2NywtMC4xMDQ4OTggbCAwLjE4MzU3MiwwIGMgMC41MDAyNTUsLTAuNTk5Njg1IDEuMDY2NjU5LC0xLjI5ODA2IDEuOTQwNjA5LC0yLjc1MzU2NyAtMi4xNTI3MzYsMS44MjMyMDYgLTIuMDU5NjcsMS44MjY3MzQgLTIuNDY1MDk4LDIuMjU1MzAzIC0wLjI3ODQ4MywtMC41NTYyNTEgLTAuNzEwMzYzLC0xLjIwODU1MSAtMS4zNjM2NzIsLTEuNjc4MzY2IGwgMC4xMzExMjEsLTAuMDI2MjIgYyAwLDAgLTAuMTI3MDY2LC0wLjA3MjQ1IDAuNTc2OTQsLTEuNTIxMDE4IDAuNzA0MDAzLC0xLjQ0ODU2MSAtNC41OTY4OTEsLTMuNDAzMDU1IC0zLjUxNDA3OCwtMi4zMDc3NTIgMC41ODg5ODEsMC41OTU3NzQgLTAuODI1MTQ4LDEuNTQyOTk1IC0yLjM2MDIwMSwyLjIwMjg1NSAtMC4xODM2NTQsLTAuMTM5NDIzIC0xLjg2MzAyNSwtMS4zNjE5MDQgLTMuMzA0MjgsLTEuOTQwNjEgLTAuMjk3NDIyLC0wLjI5MzEzNCAtMC40MDEyLC0wLjUzMTgyMSAtMC43NjA1MTIsLTAuODM5MTgzIDMuNzA1MTI2LC0yLjYwMTc3NCAtMy4wMDMwMDUsLTEuNjk5NTE2IC03LjIzNzk1LC00LjQzMTkzMyAyLjkzMTc1OSwxLjkyMzk1OCAzLjAwOTAzNywzLjk3NDk4MiAxLjk5MzA2LDUuNzE2OTMxIC0xLjEzMTA2OSwtMC4yNjE0ODcgLTIuMDU1ODc4LC0wLjY3NDE3NyAtMS43ODMyNjQsLTEuMjMyNTQ5IDAuNTI3MzQ5LC0xLjA4MDEyNSAtMi4wMDg5NTcsMC44MjAzNzUgLTIuNjIyNDQ1LDIuMjU1MzAzIC0wLjExMTE4MSwwLjAwNjkgLTAuMTk3MTUsLTAuMDkxNzQgLTAuMzE0NjkzLC0wLjA1MjQ1IC0wLjAwOCwtMC40MTQ0MzQgMC4wNTY3NywtMC44MDkzMjQgLTAuMDUyNDUsLTEuMjMyNTUgLTAuNjY1MzU1LC0yLjU3ODI0MyAtMi45NzA0MTksLTIuMDk0MDUxIC00LjkzMDE5OCwtMC4xMDQ4OTggLTAuODY0Mzc3LC0xLjIyMjQ1OCAtMi4zOTE5LC0yLjA0OTQzNiAtMi43NTM1NjgsLTIuODU4NDY2IC0wLjQwOTcxOCwtMC45MTY1MTIgMS43MjE5MjQsLTMuMDUzODQ1IDIuMTUwNDA1LC0zLjU2NjUyNiB6IG0gMy41MTQwNzgsNy45NDYwMTEgYyAwLjE2MTQwNSwwIC0wLjA0MTYyLDAuMzg5MDc2IC0wLjEzMTEyMiwwLjY1NTYxMSAtMC4wNDQ1NCwwLjAwNyAtMC4wODYwNiwwLjAyMDMzIC0wLjEzMTEyMywwLjAyNjIyIC0wLjAyNDU2LC0wLjM4NjAwNSAwLjAxMTE3LC0wLjY4MTgzNiAwLjI2MjI0NSwtMC42ODE4MzYgeiBtIDE1LjY4MjIyNSwwLjUyNDQ4OSBjIC0wLjI0MzMxNywwLjA5MTA1IC0wLjQ0NDIyOCwwLjI0ODYyIC0wLjY4MTgzNiwwLjMxNDY5MyAtMC4wNDIwMSwtMC4wNjIzNyAtMC4xMzk2NjUsLTAuMTQ2NjE1IC0wLjE4MzU3MSwtMC4yMDk3OTYgbCAwLjg2NTQwNywtMC4xMDQ4OTcgeiIgaWQ9InBhdGg2MTQiIHN0eWxlPSJmaWxsOm5vbmU7c3Ryb2tlOiM2ZDZkNmQ7c3Ryb2tlLXdpZHRoOjEuMDQ4OTc4MjE7c3Ryb2tlLWxpbmVjYXA6cm91bmQ7c3Ryb2tlLWxpbmVqb2luOnJvdW5kO3N0cm9rZS1taXRlcmxpbWl0OjQ7c3Ryb2tlLW9wYWNpdHk6MTtzdHJva2UtZGFzaG9mZnNldDowO21hcmtlcjpub25lO3Zpc2liaWxpdHk6dmlzaWJsZTtkaXNwbGF5OmlubGluZTtvdmVyZmxvdzp2aXNpYmxlIi8+JiN4YTsgICAgICAgIDxwYXRoIGQ9Im0gNDQuODM3ODMsNTMuNTkwMzQ4IDEyLjc4Mzg2NCwtMS43MzM5NzUgYyAwLDAgLTQuNDYwOTI4LC0zLjQxOTczNiAtNS4xMzY2NiwtMi4wMzU3IC0wLjY3NTcyOSwxLjM4NDAzOCAtNi43NzEyMzcsMC41OTI4MTUgLTYuMDk1NTA3LC0wLjc5MTIyMSAwLjY3NTczMSwtMS4zODQwMzggLTMuNzIxNDE2LDIuMTM2NDM0IC0yLjU5MTE4MiwzLjI4MzgzMyAxLjEzMDIzMiwxLjE0NzM5OSAxLjAzOTQ4NSwxLjI3NzA2MyAxLjAzOTQ4NSwxLjI3NzA2MyB6IiBpZD0icGF0aDUwNiIgc3R5bGU9ImZpbGw6dXJsKCNsaW5lYXJHcmFkaWVudDI1MjApO2ZpbGwtb3BhY2l0eToxO2ZpbGwtcnVsZTpldmVub2RkO3N0cm9rZTpub25lO3N0cm9rZS13aWR0aDoyLjIxMDc0OTYzO21hcmtlcjpub25lO3Zpc2liaWxpdHk6dmlzaWJsZTtkaXNwbGF5OmlubGluZTtvdmVyZmxvdzp2aXNpYmxlIi8+JiN4YTsgICAgICAgIDxwYXRoIGQ9Im0gMzguMTIyNzI0LDUwLjE4Nzc3MSBjIDIuMDIxMjY0LC0yLjI4NDkwNyA0LjU2OTgxNSwtMi45MDAwNzQgNS4yNzI4NjQsLTAuMTc1NzYyIDAuNzAzMDQ4LDIuNzI0MzE0IC0xLjA1NDU3Myw1Ljg4ODAzMiAtMS41ODE4NTksNC42NTc2OTYgLTAuNTI3Mjg4LC0xLjIzMDMzNSAtMS4xNDI0NTQsLTMuMjUxNTk4IC0wLjQzOTQwNiwtMy4yNTE1OTggMC43MDMwNDgsMCAtMS40OTM5NzgsMy4xNjM3MTcgLTEuNDkzOTc4LDMuMTYzNzE3IGwgLTEuNzU3NjIxLC00LjM5NDA1MyB6IiBpZD0icGF0aDQ1OSIgc3R5bGU9ImZpbGw6dXJsKCNsaW5lYXJHcmFkaWVudDI1MjIpO2ZpbGwtb3BhY2l0eToxO2ZpbGwtcnVsZTpldmVub2RkO3N0cm9rZTpub25lO3N0cm9rZS13aWR0aDoyLjIxMDc0OTYzO21hcmtlcjpub25lO3Zpc2liaWxpdHk6dmlzaWJsZTtkaXNwbGF5OmlubGluZTtvdmVyZmxvdzp2aXNpYmxlIi8+JiN4YTsgICAgICAgIDxwYXRoIGQ9Im0gMzAuNDEzMjg4LDQ4LjQ4NTAwMiBjIDAsMCAxLjkyNzE3OCwxLjU0MDA1NiAyLjU2ODA2NywwLjQ1NzIzOSAwLjY0MDg4OSwtMS4wODI4MTYgMC40MjczNiwtMS43NTgzOTQgMC40MjczNiwtMS43NTgzOTQgMCwwIDIuNTc4MjcxLC0yLjQwMzk0MiA0LjE0ODA2MSwtMy41ODYwMTYgMS41Njk3ODksLTEuMTgyMDc1IC0yLjM5OTQzMiwyLjIxMDIzMyAtMS44NTMxNDEsMy40MzIyNDkgMC41NDYyODksMS4yMjIwMTUgMy44ODkxOTEsMi4zOTQ2MjMgMy4zMTI3MjMsNS4wOTE4MjkgLTAuNTc2NDY3LDIuNjk3MjA1IC0wLjY2MDg1OSwyLjE0MDg1NyAtMS42MzQ1MDgsMi42NzcyMzYgLTAuOTczNjQ3LDAuNTM2Mzc3IC0zLjYxNjM0MywxLjMyNTkzMSAtNS4zOTQ0MSwtMS4xNTI5MzYgLTEuNzc4MDY5LC0yLjQ3ODg2NyAtMi41MzI3ODUsLTUuODA3MDUxIC0xLjU3NDE1MiwtNS4xNjEyMDcgeiIgaWQ9InBhdGg1MDQiIHN0eWxlPSJmaWxsOnVybCgjbGluZWFyR3JhZGllbnQyNTI0KTtmaWxsLW9wYWNpdHk6MTtmaWxsLXJ1bGU6bm9uemVybztzdHJva2U6bm9uZTtzdHJva2Utd2lkdGg6MTttYXJrZXI6bm9uZTt2aXNpYmlsaXR5OnZpc2libGU7ZGlzcGxheTppbmxpbmU7b3ZlcmZsb3c6dmlzaWJsZSIvPiYjeGE7ICAgICAgICA8cGF0aCBkPSJtIDYyLjc2Nzg2OCw1My4zOTU4NTQgLTEyLjc1ODkzNywyLjA5MDc4NSBjIC0wLjEzMTEyMiwtMC4zNjcxNDMgMy4yMjUwMiwtNC4zMTI1ODggNC4zMDc4MywtMy4yMTcyODYgMS4wODI4MTMsMS4wOTUzMDQgNi42MDUzLC0xLjYwMzQ3MyA1LjUyMjQ4NywtMi42OTg3NzUgLTEuMDgyODEyLC0xLjA5NTMwMyA0LjIwOTE4MywwLjgzNDMxMyAzLjUwNTE3OSwyLjI4Mjg3NCAtMC43MDQwMDQsMS40NDg1NjMgLTAuNTc2NTU5LDEuNTQyNDAyIC0wLjU3NjU1OSwxLjU0MjQwMiB6IiBpZD0icGF0aDUxMSIgc3R5bGU9ImZpbGw6dXJsKCNsaW5lYXJHcmFkaWVudDI1MjYpO2ZpbGwtb3BhY2l0eToxO2ZpbGwtcnVsZTpldmVub2RkO3N0cm9rZTpub25lO3N0cm9rZS13aWR0aDoyLjIxMDc0OTYzO21hcmtlcjpub25lO3Zpc2liaWxpdHk6dmlzaWJsZTtkaXNwbGF5OmlubGluZTtvdmVyZmxvdzp2aXNpYmxlIi8+JiN4YTsgICAgICAgIDxwYXRoIGQ9Im0gNDEuOTAyOTA0LDUwLjc5ODk4NiAwLjg3ODgxLDAuNzkwOTMgLTYuNTAzMTk5LDMuNjkxMDA0IDUuNjI0Mzg5LC00LjQ4MTkzNCB6IiBpZD0icGF0aDQ1OCIgc3R5bGU9ImZpbGw6I2ZmZmZmZjtmaWxsLW9wYWNpdHk6MTtmaWxsLXJ1bGU6ZXZlbm9kZDtzdHJva2U6bm9uZSIvPiYjeGE7ICAgICAgICA8cGF0aCBkPSJtIDQ2LjE3MDA5Miw0NC41MzkwNyBjIDguMzgyMjI3LDUuNTAwODE2IC01LjA1NTg1OSwxMy4zNjExMTUgLTcuMjcwNTI5LDguMjY0NzkxIDEuMjQwODgzLDAuOTE0MDc1IDEuMzI1MTg2LDEuODYwNTU1IDEuMTQ5NjEzLDIuNzk2MzU3IGwgMTkuNzI5ODU4LDAgYyAtMC43MTgzMzksLTAuMjEzMjA5IC0xLjM1MjA5NiwtMC40NjEzOSAtMi40ODU2NTIsLTAuNDk3MTMgMC45MjY4MjcsLTAuMzAzNzg5IC0wLjQ1ODEwNiwtMy4xOTA0OCAtMy44ODM4MywtNi4xMjA5MTYgMy43MDUxMjMsLTIuNjAxNzc0IC0zLjAwNDUxNywtMS43MTA2ODUgLTcuMjM5NDYsLTQuNDQzMTAyIHogbSAyMC4yODkxMjksOC4yOTU4NjIgYyAtMi42MzEyNDIsMi4yMjg0NjcgLTIuMjIxMjc0LDEuOTg0MjMyIC0zLjAxMzg1MywyLjc2NTI4NiBsIDEuMDg3NDczLDAgYyAwLjUwMDI1MywtMC41OTk2ODQgMS4wNTI0MjksLTEuMzA5Nzc5IDEuOTI2MzgsLTIuNzY1Mjg2IHoiIGlkPSJwYXRoMzU1IiBzdHlsZT0iZm9udC1zaXplOjEycHg7ZmlsbDp1cmwoI2xpbmVhckdyYWRpZW50MjUyOCk7ZmlsbC1vcGFjaXR5OjE7ZmlsbC1ydWxlOm5vbnplcm87c3Ryb2tlOm5vbmU7b3ZlcmZsb3c6dmlzaWJsZSIvPiYjeGE7ICAgICAgICA8cGF0aCBkPSJtIDI5LjE2OTA5Myw1NS42NDUyMjkgMTcuNDg4MzI3LC0wLjA4Nzg4IGMgMCwwIC0xLjMxODIxNCwtNS45NzU5MSAtMy43Nzg4ODQsLTQuMDQyNTI4IC0yLjQ2MDY3LDEuOTMzMzg0IC04Ljg3NTk4NiwtMC40Mzk0MDQgLTYuNDE1MzE1LC0yLjM3Mjc4OCAyLjQ2MDY2OCwtMS45MzMzODMgLTcuMDMwNDg1LDIuNDYwNjcgLTcuMDMwNDg1LDQuMzk0MDUyIDAsMS45MzMzODUgLTAuMjYzNjQzLDIuMTA5MTQ1IC0wLjI2MzY0MywyLjEwOTE0NSB6IiBpZD0icGF0aDQ0MiIgc3R5bGU9ImZpbGw6dXJsKCNsaW5lYXJHcmFkaWVudDI1MzApO2ZpbGwtb3BhY2l0eToxO2ZpbGwtcnVsZTpldmVub2RkO3N0cm9rZTpub25lO3N0cm9rZS13aWR0aDoyLjIxMDc0OTYzO21hcmtlcjpub25lO3Zpc2liaWxpdHk6dmlzaWJsZTtkaXNwbGF5OmlubGluZTtvdmVyZmxvdzp2aXNpYmxlIi8+JiN4YTsgICAgICAgIDxnIHRyYW5zZm9ybT0ibWF0cml4KDAuMjQxNDg1LDAsMCwwLjI0MTQ4NSwtOC4zOTE1LDMxLjI5MTMzKSIgaWQ9ImczNzgiIHN0eWxlPSJmb250LXNpemU6MTJweDtmaWxsOnVybCgjbGluZWFyR3JhZGllbnQyNTM0KTtmaWxsLW9wYWNpdHk6MTtmaWxsLXJ1bGU6ZXZlbm9kZDtzdHJva2U6bm9uZTtzdHJva2Utd2lkdGg6Mi4xMzMzMzMyMTttYXJrZXI6bm9uZTt2aXNpYmlsaXR5OnZpc2libGU7ZGlzcGxheTppbmxpbmU7b3ZlcmZsb3c6dmlzaWJsZSI+JiN4YTsgICAgICAgICAgPHBhdGggZD0iTSAxNjMuNjY4NTQsODguNzIzMDc5IEMgMTY0LjY5ODAzLDkyLjIwOTk5MiAxNTYuMjA1LDk4LjA3OSAxNDguNDI5LDk3LjM3NiBjIDcuMzEzLC0wLjM4MSA0Ljc1MSwwLjkyNiA2LjU1MSwxLjg2MyAyLjE1NywxLjM0MSAxMy44ODUwOCwtMy43MDQ2NTIgOC42ODg1NCwtMTAuNTE1OTIxIHoiIGlkPSJwYXRoMzc5IiBzdHlsZT0iZmlsbDp1cmwoI2xpbmVhckdyYWRpZW50MjUzMik7bWFya2VyOm5vbmU7dmlzaWJpbGl0eTp2aXNpYmxlO2Rpc3BsYXk6aW5saW5lO292ZXJmbG93OnZpc2libGUiLz4mI3hhOyAgICAgICAgPC9nPiYjeGE7ICAgICAgICA8cGF0aCBkPSJtIDQzLjIzMDA2MSw1MS45MTQwMjUgYyAtMS4zMTgyMTcsMC41MjcyODcgLTIuNDYwNjcsMy4wNzU4MzcgLTQuNjU3Njk3LDMuMTYzNzE5IC0yLjE5NzAyNywwLjA4Nzg4IDQuNjU3Njk3LDAuNjE1MTY2IDUuMzYwNzQ0LDAgMC43MDMwNDgsLTAuNjE1MTY4IC0wLjcwMzA0NywtMy4xNjM3MTkgLTAuNzAzMDQ3LC0zLjE2MzcxOSB6IiBpZD0icGF0aDQ0OCIgc3R5bGU9ImZpbGw6dXJsKCNsaW5lYXJHcmFkaWVudDI1MzYpO2ZpbGwtb3BhY2l0eToxO2ZpbGwtcnVsZTpldmVub2RkO3N0cm9rZTpub25lO3N0cm9rZS13aWR0aDoyLjIxMDc0OTYzO21hcmtlcjpub25lO3Zpc2liaWxpdHk6dmlzaWJsZTtkaXNwbGF5OmlubGluZTtvdmVyZmxvdzp2aXNpYmxlIi8+JiN4YTsgICAgICAgIDxwYXRoIGQ9Im0gNDIuNDM5MTMxLDU1LjUxNzE1IDkuMTM5NjMsMCBjIDAsMCAxLjQ5Mzk3NywtMi42MzY0MzMgLTEuOTMzMzg0LC0yLjQ2MDY3MSAtMy40MjczNjEsMC4xNzU3NjEgLTIuMjg0OTA3LDEuMjMwMzM2IC00LjA0MjUyOSwxLjU4MTg2IC0xLjc1NzYyLDAuMzUxNTI1IC0zLjE2MzcxNywwLjg3ODgxMSAtMy4xNjM3MTcsMC44Nzg4MTEgeiIgaWQ9InBhdGg0OTEiIHN0eWxlPSJmaWxsOnVybCgjcmFkaWFsR3JhZGllbnQyNTM4KTtmaWxsLW9wYWNpdHk6MTtmaWxsLXJ1bGU6bm9uemVybztzdHJva2U6bm9uZTtzdHJva2Utd2lkdGg6MTttYXJrZXI6bm9uZTt2aXNpYmlsaXR5OnZpc2libGU7ZGlzcGxheTppbmxpbmU7b3ZlcmZsb3c6dmlzaWJsZSIvPiYjeGE7ICAgICAgICA8cGF0aCBkPSJtIDU1LjAwNjEyLDU1LjYwNTAyOSBjIDAsMCAyLjQ2MDY3LDAuMTc1NzYzIDIuMTk3MDI3LDEuNDA2MDk4IC0wLjI2MzY0MiwxLjIzMDMzNCAtMC44Nzg4MTEsMS41ODE4NTkgLTAuODc4ODExLDEuNTgxODU5IDAsMCAwLjI2MzY0MywzLjUxNTI0MiAwLjYxNTE2OSw1LjQ0ODYyNSAwLjM1MTUyMywxLjkzMzM4MiAtMC4yNjM2NDQsLTMuMjUxNiAwLjk2NjY5LC0zLjc3ODg4NSAxLjIzMDMzNiwtMC41MjcyODcgNC40ODE5MzIsMC44Nzg4MSA1Ljg4ODAyOSwtMS40OTM5NzkgMS40MDYwOTgsLTIuMzcyNzg4IDAuOTY2NjkzLC0yLjAyMTI2NCAwLjYxNTE2NywtMy4wNzU4MzcgLTAuMzUxNTIzLC0xLjA1NDU3MSAtMS43NTc2MiwtMy40MjczNiAtNC43NDU1NzQsLTIuODEyMTkzIC0yLjk4Nzk1NiwwLjYxNTE2NyAtNS44MDAxNSwyLjU0ODU1IC00LjY1NzY5NywyLjcyNDMxMiB6IiBpZD0icGF0aDQ5OCIgc3R5bGU9ImZpbGw6dXJsKCNyYWRpYWxHcmFkaWVudDI1NDApO2ZpbGwtb3BhY2l0eToxO2ZpbGwtcnVsZTpub256ZXJvO3N0cm9rZTpub25lO3N0cm9rZS13aWR0aDoxO21hcmtlcjpub25lO3Zpc2liaWxpdHk6dmlzaWJsZTtkaXNwbGF5OmlubGluZTtvdmVyZmxvdzp2aXNpYmxlIi8+JiN4YTsgICAgICAgIDxwYXRoIGQ9Im0gMjkuMTkyMDg0LDU1LjYyNTY4NyAxMy4wODUyMiwtMC4wNDAyIGMgMCwwIDEuMjQxNTQsLTAuMjU1MjEzIDEuODY0NjQ2LC0wLjQxNjAxNCAwLjY0MTY0OSwtMC4zMjc2OTMgMS42MjkyLC0wLjMyMDYyIDIuMzIwNzI1LC0wLjY3NzE3OSAxLjI0NTc4NywtMC42NDIzNCAxLjAxMzY2NSwtMS40MTcyMjYgMy44NjkzNjMsLTEuNDM1NzY5IC0zLjQ2NzYzMywtMC4zNzA4NyAtMy4yNTM0NDIsMS4yMjQyODEgLTQuNTQxMjc0LDEuNTMxODc0IC0xLjA0NTE2NCwwLjI0OTYzIC0zLjA1MTE1NiwwLjk1Njg4NyAtMy40OTMzNjEsMC44OTY1ODcgLTAuNDQyMjAzLC0wLjA2MDMgLTEzLjEwNTMxOSwwLjE0MDcwMiAtMTMuMTA1MzE5LDAuMTQwNzAyIHoiIGlkPSJwYXRoNjQ0IiBzdHlsZT0iZmlsbDojZmZmZmZmO2ZpbGwtb3BhY2l0eToxO2ZpbGwtcnVsZTpldmVub2RkO3N0cm9rZTpub25lIi8+JiN4YTsgICAgICAgIDxwYXRoIGQ9Im0gMzYuNTI4NjUxLDUxLjA4MzA0NSBjIDAsMCAxLjg1MjYxMiwxLjQxODc5NSA0LjY0MzE0MiwxLjEwNTUxIDEuMjM5NzM1LC0wLjEzOTE4MSAxLjk4OTkxOCwtMC45ODQ5MDkgMi40OTI0MjQsLTEuMDQ1MjA5IDAuNTAyNTA0LC0wLjA2MDMgMC45MDQ1MDcsMC4yNDEyMDIgMC45MDQ1MDcsMC4yNDEyMDIgMCwwIC0wLjQ2MjMwNCwtMC4yMjExMDIgLTAuODg0NDA5LC0wLjEyMDYwMSAtMC40MjIxMDMsMC4xMDA1IC0xLjM4Njk5LDEuMTY4NDgzIC0yLjgxNDAyNCwxLjEyNTYxIC0zLjI1NjMxLC0wLjA5NzgzIC00LjM0MTY0LC0xLjMwNjUxMiAtNC4zNDE2NCwtMS4zMDY1MTIgeiIgaWQ9InBhdGg2NDUiIHN0eWxlPSJmaWxsOiNmZmZmZmY7ZmlsbC1vcGFjaXR5OjE7ZmlsbC1ydWxlOmV2ZW5vZGQ7c3Ryb2tlOm5vbmUiLz4mI3hhOyAgICAgICAgPHBhdGggZD0ibSA0Ni4xODg0NjEsNDQuNTY2MDk2IGMgMCwwIDMuMDA0MDQ2LDEuOTI4NTIzIDIuNzA3MzQ5LDQuMzM5MTc3IC0wLjI5NjY5NiwyLjQxMDY1NCAtMy4wNDExMzEsNC4yMjc5MTUgLTMuMDQxMTMxLDQuMjI3OTE1IDAsMCAzLjYyNTEwMSwtMi4yNzM4MSAzLjM3NDkxNCwtNC40NTA0MzcgLTAuMzcwODY5LC0zLjIyNjU2OCAtMy4wNDExMzIsLTQuMTE2NjU1IC0zLjA0MTEzMiwtNC4xMTY2NTUgeiIgaWQ9InBhdGg2NDYiIHN0eWxlPSJmaWxsOiNmZmZmZmY7ZmlsbC1vcGFjaXR5OjE7ZmlsbC1ydWxlOmV2ZW5vZGQ7c3Ryb2tlOm5vbmUiLz4mI3hhOyAgICAgICAgPHBhdGggZD0ibSA1My40NTc1MSw0OS4wMTY1MzQgYyAtMC4zMzM3ODMsLTAuNjMwNDc5IC0xLjkyODUyNCwtMS44OTE0MzYgLTMuMzAwNzQyLC0yLjE4ODEzMiAxLjk2NTYxLDAuNTE5MjE4IDMuNzA4Njk4LDEuODE3MjYyIDMuNzA4Njk4LDEuODE3MjYyIGwgLTAuNDA3OTU2LDAuMzcwODcgeiIgaWQ9InBhdGg2NDciIHN0eWxlPSJmaWxsOiMwMDAwMDA7ZmlsbC1vcGFjaXR5OjAuMTc4NTcxMzk7ZmlsbC1ydWxlOmV2ZW5vZGQ7c3Ryb2tlOm5vbmU7c3Ryb2tlLXdpZHRoOjFweDttYXJrZXI6bm9uZTt2aXNpYmlsaXR5OnZpc2libGU7ZGlzcGxheTppbmxpbmU7b3ZlcmZsb3c6dmlzaWJsZSIvPiYjeGE7ICAgICAgICA8cGF0aCBkPSJtIDM4LjQ4NTEyMSw0OS44MjA1MDMgYyAwLDAgMC44MzkxODIsMS4wMjI3NTQgMC41MjQ0ODksMi4yMjkwNzggMC43NjA1MSwwLjE1NzM0NiAxLjA3NTIwMiwwLjE4MzU3MSAxLjA3NTIwMiwwLjE4MzU3MSBMIDQwLjc2NjY1LDUxLjY4MjQ0IGMgMCwwIDAsLTEuNjI1OTE3IC0yLjI4MTUyOSwtMS44NjE5MzcgeiIgaWQ9InBhdGg2NDgiIHN0eWxlPSJmaWxsOiMwMDAwMDA7ZmlsbC1vcGFjaXR5OjAuMTc4NTcxMzk7ZmlsbC1ydWxlOmV2ZW5vZGQ7c3Ryb2tlOm5vbmUiLz4mI3hhOyAgICAgICAgPHBhdGggZD0ibSAzNi4xMTcyODEsNDkuNTM5NDAxIGMgMCwwIDEuNDk0Nzk0LC0wLjUyNDQ4OSAxLjEwMTQyOCwtMC4xNTczNDcgLTAuMzkzMzY3LDAuMzY3MTQyIDEuODYxOTM1LDIuMDE5MjgzIDEuODYxOTM1LDIuMDE5MjgzIDAsMCAwLDAuNTI0NDg5IC0wLjEwNDg5NiwwLjY1NTYxMiAtMC4xMDQ5LDAuMTMxMTIzIC0zLjg1NDk5NiwtMC45NDQwOCAtMi44NTg0NjcsLTIuNTE3NTQ4IHoiIGlkPSJwYXRoNjQ5IiBzdHlsZT0iZmlsbDojMDAwMDAwO2ZpbGwtb3BhY2l0eTowLjA3MTQyODU1O2ZpbGwtcnVsZTpldmVub2RkO3N0cm9rZTpub25lIi8+JiN4YTsgICAgICA8L2c+JiN4YTsgICAgPC9nPiYjeGE7ICA8L2c+JiN4YTs8L3N2Zz4=" vertex="1" parent="WIyWlLk6GJQsqaUBKTNV-1">
          <mxGeometry x="30" y="210" width="128" height="128" as="geometry" />
        </mxCell>
      </root>
    </mxGraphModel>
  </diagram>
</mxfile>
